<?xml version="1.0" encoding="utf-8" standalone="no"?>
<!DOCTYPE svg PUBLIC "-//W3C//DTD SVG 1.1//EN"
  "http://www.w3.org/Graphics/SVG/1.1/DTD/svg11.dtd">
<!-- Created with matplotlib (http://matplotlib.org/) -->
<svg height="288pt" version="1.1" viewBox="0 0 720 288" width="720pt" xmlns="http://www.w3.org/2000/svg" xmlns:xlink="http://www.w3.org/1999/xlink">
 <defs>
  <style type="text/css">
*{stroke-linecap:butt;stroke-linejoin:round;}
  </style>
 </defs>
 <g id="figure_1">
  <g id="patch_1">
   <path d="M 0 288 
L 720 288 
L 720 0 
L 0 0 
z
" style="fill:#ffffff;"/>
  </g>
  <g id="axes_1">
   <g id="patch_2">
    <path d="M 36 250.56 
L 684 250.56 
L 684 54.72 
L 36 54.72 
z
" style="fill:#ffffff;"/>
   </g>
   <g id="patch_3">
    <path clip-path="url(#pe1d5616aed)" d="M 42.351493 250.56 
L 42.351493 54.72 
L 140.87349 54.72 
L 140.87349 250.56 
z
" style="fill:#0000ff;opacity:0.1;stroke:#777777;stroke-linejoin:miter;"/>
   </g>
   <g id="patch_4">
    <path clip-path="url(#pe1d5616aed)" d="M 155.201276 250.56 
L 155.201276 54.72 
L 164.506952 54.72 
L 164.506952 250.56 
z
" style="fill:#0000ff;opacity:0.1;stroke:#777777;stroke-linejoin:miter;"/>
   </g>
   <g id="patch_5">
    <path clip-path="url(#pe1d5616aed)" d="M 183.709141 250.56 
L 183.709141 54.72 
L 204.240711 54.72 
L 204.240711 250.56 
z
" style="fill:#0000ff;opacity:0.1;stroke:#777777;stroke-linejoin:miter;"/>
   </g>
   <g id="patch_6">
    <path clip-path="url(#pe1d5616aed)" d="M 219.454753 250.56 
L 219.454753 54.72 
L 231.714611 54.72 
L 231.714611 250.56 
z
" style="fill:#0000ff;opacity:0.1;stroke:#777777;stroke-linejoin:miter;"/>
   </g>
   <g id="patch_7">
    <path clip-path="url(#pe1d5616aed)" d="M 245.303852 250.56 
L 245.303852 54.72 
L 256.234329 54.72 
L 256.234329 250.56 
z
" style="fill:#0000ff;opacity:0.1;stroke:#777777;stroke-linejoin:miter;"/>
   </g>
   <g id="patch_8">
    <path clip-path="url(#pe1d5616aed)" d="M 269.528151 250.56 
L 269.528151 54.72 
L 280.0155 54.72 
L 280.0155 250.56 
z
" style="fill:#0000ff;opacity:0.1;stroke:#777777;stroke-linejoin:miter;"/>
   </g>
   <g id="patch_9">
    <path clip-path="url(#pe1d5616aed)" d="M 293.90016 250.56 
L 293.90016 54.72 
L 304.682927 54.72 
L 304.682927 250.56 
z
" style="fill:#0000ff;opacity:0.1;stroke:#777777;stroke-linejoin:miter;"/>
   </g>
   <g id="patch_10">
    <path clip-path="url(#pe1d5616aed)" d="M 341.019375 250.56 
L 341.019375 54.72 
L 348.700251 54.72 
L 348.700251 250.56 
z
" style="fill:#0000ff;opacity:0.1;stroke:#777777;stroke-linejoin:miter;"/>
   </g>
   <g id="patch_11">
    <path clip-path="url(#pe1d5616aed)" d="M 360.960109 250.56 
L 360.960109 54.72 
L 377.060406 54.72 
L 377.060406 250.56 
z
" style="fill:#0000ff;opacity:0.1;stroke:#777777;stroke-linejoin:miter;"/>
   </g>
   <g id="patch_12">
    <path clip-path="url(#pe1d5616aed)" d="M 407.19307 250.56 
L 407.19307 54.72 
L 417.237292 54.72 
L 417.237292 250.56 
z
" style="fill:#0000ff;opacity:0.1;stroke:#777777;stroke-linejoin:miter;"/>
   </g>
   <g id="patch_13">
    <path clip-path="url(#pe1d5616aed)" d="M 429.940278 250.56 
L 429.940278 54.72 
L 440.870755 54.72 
L 440.870755 250.56 
z
" style="fill:#0000ff;opacity:0.1;stroke:#777777;stroke-linejoin:miter;"/>
   </g>
   <g id="patch_14">
    <path clip-path="url(#pe1d5616aed)" d="M 466.129018 250.56 
L 466.129018 54.72 
L 677.648507 54.72 
L 677.648507 250.56 
z
" style="fill:#0000ff;opacity:0.1;stroke:#777777;stroke-linejoin:miter;"/>
   </g>
   <g id="patch_15">
    <path clip-path="url(#pe1d5616aed)" d="M 596.556189 152.64 
C 604.310919 152.64 604.310919 130.1184 612.065649 130.1184 
" style="fill:none;stroke:#808080;stroke-linejoin:miter;"/>
   </g>
   <g id="patch_16">
    <path clip-path="url(#pe1d5616aed)" d="M 596.556189 152.64 
C 604.310919 152.64 604.310919 152.64 612.065649 152.64 
" style="fill:none;stroke:#808080;stroke-linejoin:miter;"/>
   </g>
   <g id="patch_17">
    <path clip-path="url(#pe1d5616aed)" d="M 596.556189 152.64 
C 604.310919 152.64 604.310919 175.1616 612.065649 175.1616 
" style="fill:none;stroke:#808080;stroke-linejoin:miter;"/>
   </g>
   <g id="patch_18">
    <path clip-path="url(#pe1d5616aed)" d="M 596.556189 197.6832 
C 604.310919 197.6832 604.310919 175.1616 612.065649 175.1616 
" style="fill:none;stroke:#808080;stroke-linejoin:miter;"/>
   </g>
   <g id="patch_19">
    <path clip-path="url(#pe1d5616aed)" d="M 531.564167 152.64 
C 540.057442 152.64 540.057442 220.2048 548.550718 220.2048 
" style="fill:none;stroke:#808080;stroke-linejoin:miter;"/>
   </g>
   <g id="patch_20">
    <path clip-path="url(#pe1d5616aed)" d="M 531.564167 152.64 
C 540.057442 152.64 540.057442 152.64 548.550718 152.64 
" style="fill:none;stroke:#808080;stroke-linejoin:miter;"/>
   </g>
   <g id="patch_21">
    <path clip-path="url(#pe1d5616aed)" d="M 140.87349 152.64 
C 148.037383 152.64 148.037383 152.64 155.201276 152.64 
" style="fill:none;stroke:#808080;stroke-linejoin:miter;"/>
   </g>
   <g id="patch_22">
    <path clip-path="url(#pe1d5616aed)" d="M 140.87349 130.1184 
C 148.037383 130.1184 148.037383 152.64 155.201276 152.64 
" style="fill:none;stroke:#808080;stroke-linejoin:miter;"/>
   </g>
   <g id="patch_23">
    <path clip-path="url(#pe1d5616aed)" d="M 140.87349 175.1616 
C 148.037383 175.1616 148.037383 152.64 155.201276 152.64 
" style="fill:none;stroke:#808080;stroke-linejoin:miter;"/>
   </g>
   <g id="patch_24">
    <path clip-path="url(#pe1d5616aed)" d="M 164.506952 152.64 
C 174.108047 152.64 174.108047 152.64 183.709141 152.64 
" style="fill:none;stroke:#808080;stroke-linejoin:miter;"/>
   </g>
   <g id="patch_25">
    <path clip-path="url(#pe1d5616aed)" d="M 204.240711 152.64 
C 211.847732 152.64 211.847732 152.64 219.454753 152.64 
" style="fill:none;stroke:#808080;stroke-linejoin:miter;"/>
   </g>
   <g id="patch_26">
    <path clip-path="url(#pe1d5616aed)" d="M 231.714611 152.64 
C 238.509232 152.64 238.509232 152.64 245.303852 152.64 
" style="fill:none;stroke:#808080;stroke-linejoin:miter;"/>
   </g>
   <g id="patch_27">
    <path clip-path="url(#pe1d5616aed)" d="M 256.234329 152.64 
C 262.88124 152.64 262.88124 152.64 269.528151 152.64 
" style="fill:none;stroke:#808080;stroke-linejoin:miter;"/>
   </g>
   <g id="patch_28">
    <path clip-path="url(#pe1d5616aed)" d="M 280.0155 152.64 
C 286.95783 152.64 286.95783 152.64 293.90016 152.64 
" style="fill:none;stroke:#808080;stroke-linejoin:miter;"/>
   </g>
   <g id="patch_29">
    <path clip-path="url(#pe1d5616aed)" d="M 304.682927 152.64 
C 322.851151 152.64 322.851151 152.64 341.019375 152.64 
" style="fill:none;stroke:#808080;stroke-linejoin:miter;"/>
   </g>
   <g id="patch_30">
    <path clip-path="url(#pe1d5616aed)" d="M 417.237292 152.64 
C 423.588785 152.64 423.588785 152.64 429.940278 152.64 
" style="fill:none;stroke:#808080;stroke-linejoin:miter;"/>
   </g>
   <g id="patch_31">
    <path clip-path="url(#pe1d5616aed)" d="M 440.870755 152.64 
C 453.499886 152.64 453.499886 152.64 466.129018 152.64 
" style="fill:none;stroke:#808080;stroke-linejoin:miter;"/>
   </g>
   <g id="patch_32">
    <path clip-path="url(#pe1d5616aed)" d="M 440.870755 152.64 
C 453.499886 152.64 453.499886 107.5968 466.129018 107.5968 
" style="fill:none;stroke:#808080;stroke-linejoin:miter;"/>
   </g>
   <g id="patch_33">
    <path clip-path="url(#pe1d5616aed)" d="M 440.870755 152.64 
C 453.499886 152.64 453.499886 175.1616 466.129018 175.1616 
" style="fill:none;stroke:#808080;stroke-linejoin:miter;"/>
   </g>
   <g id="patch_34">
    <path clip-path="url(#pe1d5616aed)" d="M 440.870755 152.64 
C 453.499886 152.64 453.499886 85.0752 466.129018 85.0752 
" style="fill:none;stroke:#808080;stroke-linejoin:miter;"/>
   </g>
   <g id="patch_35">
    <path clip-path="url(#pe1d5616aed)" d="M 348.700251 152.64 
C 354.83018 152.64 354.83018 152.64 360.960109 152.64 
" style="fill:none;stroke:#808080;stroke-linejoin:miter;"/>
   </g>
   <g id="patch_36">
    <path clip-path="url(#pe1d5616aed)" d="M 377.060406 152.64 
C 392.126738 152.64 392.126738 152.64 407.19307 152.64 
" style="fill:none;stroke:#808080;stroke-linejoin:miter;"/>
   </g>
   <g id="patch_37">
    <path clip-path="url(#pe1d5616aed)" d="M 531.564167 85.0752 
C 540.057442 85.0752 540.057442 152.64 548.550718 152.64 
" style="fill:none;stroke:#808080;stroke-linejoin:miter;"/>
   </g>
   <g id="patch_38">
    <path clip-path="url(#pe1d5616aed)" d="M 596.556189 107.5968 
C 604.310919 107.5968 604.310919 130.1184 612.065649 130.1184 
" style="fill:none;stroke:#808080;stroke-linejoin:miter;"/>
   </g>
   <g id="patch_39">
    <path clip-path="url(#pe1d5616aed)" d="M 479.718258 152.64 
C 486.660588 152.64 486.660588 152.64 493.602918 152.64 
" style="fill:none;stroke:#808080;stroke-linejoin:miter;"/>
   </g>
   <g id="patch_40">
    <path clip-path="url(#pe1d5616aed)" d="M 479.718258 152.64 
C 486.660588 152.64 486.660588 130.1184 493.602918 130.1184 
" style="fill:none;stroke:#808080;stroke-linejoin:miter;"/>
   </g>
   <g id="patch_41">
    <path clip-path="url(#pe1d5616aed)" d="M 505.27194 175.1616 
C 511.106451 175.1616 511.106451 197.6832 516.940962 197.6832 
" style="fill:none;stroke:#808080;stroke-linejoin:miter;"/>
   </g>
   <g id="patch_42">
    <path clip-path="url(#pe1d5616aed)" d="M 505.27194 175.1616 
C 511.106451 175.1616 511.106451 152.64 516.940962 152.64 
" style="fill:none;stroke:#808080;stroke-linejoin:miter;"/>
   </g>
   <g id="patch_43">
    <path clip-path="url(#pe1d5616aed)" d="M 505.27194 152.64 
C 511.106451 152.64 511.106451 152.64 516.940962 152.64 
" style="fill:none;stroke:#808080;stroke-linejoin:miter;"/>
   </g>
   <g id="patch_44">
    <path clip-path="url(#pe1d5616aed)" d="M 505.27194 152.64 
C 511.106451 152.64 511.106451 197.6832 516.940962 197.6832 
" style="fill:none;stroke:#808080;stroke-linejoin:miter;"/>
   </g>
   <g id="patch_45">
    <path clip-path="url(#pe1d5616aed)" d="M 531.564167 130.1184 
C 540.057442 130.1184 540.057442 152.64 548.550718 152.64 
" style="fill:none;stroke:#808080;stroke-linejoin:miter;"/>
   </g>
   <g id="patch_46">
    <path clip-path="url(#pe1d5616aed)" d="M 42.351493 250.56 
L 677.796216 250.56 
L 677.796216 234.8928 
L 42.351493 234.8928 
z
" style="fill:#d0d0d0;stroke:#d0d0d0;stroke-linejoin:miter;"/>
   </g>
   <g id="patch_47">
    <path clip-path="url(#pe1d5616aed)" d="M 140.87349 152.64 
L 134.519043 159.39648 
L 134.519043 159.39648 
L 42.351493 159.39648 
L 42.351493 145.88352 
L 134.519043 145.88352 
L 134.519043 145.88352 
z
" style="fill:#808080;stroke:#808080;stroke-linejoin:miter;stroke-width:2;"/>
   </g>
   <g id="patch_48">
    <path clip-path="url(#pe1d5616aed)" d="M 140.87349 130.1184 
L 134.519043 136.87488 
L 134.519043 136.87488 
L 51.214041 136.87488 
L 51.214041 123.36192 
L 134.519043 123.36192 
L 134.519043 123.36192 
z
" style="fill:#808080;stroke:#808080;stroke-linejoin:miter;stroke-width:2;"/>
   </g>
   <g id="patch_49">
    <path clip-path="url(#pe1d5616aed)" d="M 140.87349 175.1616 
L 134.519043 181.91808 
L 134.519043 181.91808 
L 52.100296 181.91808 
L 52.100296 168.40512 
L 134.519043 168.40512 
L 134.519043 168.40512 
z
" style="fill:#808080;stroke:#808080;stroke-linejoin:miter;stroke-width:2;"/>
   </g>
   <g id="patch_50">
    <path clip-path="url(#pe1d5616aed)" d="M 164.506952 152.64 
L 159.927969 159.39648 
L 159.927969 159.39648 
L 155.201276 159.39648 
L 155.201276 145.88352 
L 159.927969 145.88352 
L 159.927969 145.88352 
z
" style="fill:#808080;stroke:#808080;stroke-linejoin:miter;stroke-width:2;"/>
   </g>
   <g id="patch_51">
    <path clip-path="url(#pe1d5616aed)" d="M 204.240711 152.64 
L 197.886264 159.39648 
L 197.886264 159.39648 
L 183.709141 159.39648 
L 183.709141 145.88352 
L 197.886264 145.88352 
L 197.886264 145.88352 
z
" style="fill:#808080;stroke:#808080;stroke-linejoin:miter;stroke-width:2;"/>
   </g>
   <g id="patch_52">
    <path clip-path="url(#pe1d5616aed)" d="M 231.714611 152.64 
L 225.658537 159.39648 
L 225.658537 159.39648 
L 219.454753 159.39648 
L 219.454753 145.88352 
L 225.658537 145.88352 
L 225.658537 145.88352 
z
" style="fill:#808080;stroke:#808080;stroke-linejoin:miter;stroke-width:2;"/>
   </g>
   <g id="patch_53">
    <path clip-path="url(#pe1d5616aed)" d="M 256.234329 152.64 
L 250.76909 159.39648 
L 250.76909 159.39648 
L 245.303852 159.39648 
L 245.303852 145.88352 
L 250.76909 145.88352 
L 250.76909 145.88352 
z
" style="fill:#808080;stroke:#808080;stroke-linejoin:miter;stroke-width:2;"/>
   </g>
   <g id="patch_54">
    <path clip-path="url(#pe1d5616aed)" d="M 280.0155 152.64 
L 274.84568 159.39648 
L 274.84568 159.39648 
L 269.528151 159.39648 
L 269.528151 145.88352 
L 274.84568 145.88352 
L 274.84568 145.88352 
z
" style="fill:#808080;stroke:#808080;stroke-linejoin:miter;stroke-width:2;"/>
   </g>
   <g id="patch_55">
    <path clip-path="url(#pe1d5616aed)" d="M 304.682927 152.64 
L 299.365398 159.39648 
L 299.365398 159.39648 
L 293.90016 159.39648 
L 293.90016 145.88352 
L 299.365398 145.88352 
L 299.365398 145.88352 
z
" style="fill:#808080;stroke:#808080;stroke-linejoin:miter;stroke-width:2;"/>
   </g>
   <g id="patch_56">
    <path clip-path="url(#pe1d5616aed)" d="M 348.700251 152.64 
L 344.859813 159.39648 
L 344.859813 159.39648 
L 341.019375 159.39648 
L 341.019375 145.88352 
L 344.859813 145.88352 
L 344.859813 145.88352 
z
" style="fill:#808080;stroke:#808080;stroke-linejoin:miter;stroke-width:2;"/>
   </g>
   <g id="patch_57">
    <path clip-path="url(#pe1d5616aed)" d="M 377.060406 152.64 
L 370.705959 159.39648 
L 370.705959 159.39648 
L 360.960109 159.39648 
L 360.960109 145.88352 
L 370.705959 145.88352 
L 370.705959 145.88352 
z
" style="fill:#808080;stroke:#808080;stroke-linejoin:miter;stroke-width:2;"/>
   </g>
   <g id="patch_58">
    <path clip-path="url(#pe1d5616aed)" d="M 417.237292 152.64 
L 412.215181 159.39648 
L 412.215181 159.39648 
L 407.19307 159.39648 
L 407.19307 145.88352 
L 412.215181 145.88352 
L 412.215181 145.88352 
z
" style="fill:#808080;stroke:#808080;stroke-linejoin:miter;stroke-width:2;"/>
   </g>
   <g id="patch_59">
    <path clip-path="url(#pe1d5616aed)" d="M 440.870755 152.64 
L 435.405516 159.39648 
L 435.405516 159.39648 
L 429.940278 159.39648 
L 429.940278 145.88352 
L 435.405516 145.88352 
L 435.405516 145.88352 
z
" style="fill:#808080;stroke:#808080;stroke-linejoin:miter;stroke-width:2;"/>
   </g>
   <g id="patch_60">
    <path clip-path="url(#pe1d5616aed)" d="M 479.718258 152.64 
L 473.363811 159.39648 
L 473.363811 159.39648 
L 466.129018 159.39648 
L 466.129018 145.88352 
L 473.363811 145.88352 
L 473.363811 145.88352 
z
" style="fill:#808080;stroke:#808080;stroke-linejoin:miter;stroke-width:2;"/>
   </g>
   <g id="patch_61">
    <path clip-path="url(#pe1d5616aed)" d="M 505.27194 175.1616 
L 498.917493 181.91808 
L 498.917493 181.91808 
L 466.129018 181.91808 
L 466.129018 168.40512 
L 498.917493 168.40512 
L 498.917493 168.40512 
z
" style="fill:#808080;stroke:#808080;stroke-linejoin:miter;stroke-width:2;"/>
   </g>
   <g id="patch_62">
    <path clip-path="url(#pe1d5616aed)" d="M 531.564167 85.0752 
L 525.20972 91.83168 
L 525.20972 91.83168 
L 466.129018 91.83168 
L 466.129018 78.31872 
L 525.20972 78.31872 
L 525.20972 78.31872 
z
" style="fill:#808080;stroke:#808080;stroke-linejoin:miter;stroke-width:2;"/>
   </g>
   <g id="patch_63">
    <path clip-path="url(#pe1d5616aed)" d="M 596.556189 107.5968 
L 590.201742 114.35328 
L 590.201742 114.35328 
L 466.129018 114.35328 
L 466.129018 100.84032 
L 590.201742 100.84032 
L 590.201742 100.84032 
z
" style="fill:#808080;stroke:#808080;stroke-linejoin:miter;stroke-width:2;"/>
   </g>
   <g id="patch_64">
    <path clip-path="url(#pe1d5616aed)" d="M 505.27194 152.64 
L 499.511283 159.39648 
L 499.511283 159.39648 
L 493.602918 159.39648 
L 493.602918 145.88352 
L 499.511283 145.88352 
L 499.511283 145.88352 
z
" style="fill:#808080;stroke:#808080;stroke-linejoin:miter;stroke-width:2;"/>
   </g>
   <g id="patch_65">
    <path clip-path="url(#pe1d5616aed)" d="M 531.564167 130.1184 
L 525.20972 136.87488 
L 525.20972 136.87488 
L 493.602918 136.87488 
L 493.602918 123.36192 
L 525.20972 123.36192 
L 525.20972 123.36192 
z
" style="fill:#808080;stroke:#808080;stroke-linejoin:miter;stroke-width:2;"/>
   </g>
   <g id="patch_66">
    <path clip-path="url(#pe1d5616aed)" d="M 531.564167 152.64 
L 525.20972 159.39648 
L 525.20972 159.39648 
L 516.940962 159.39648 
L 516.940962 145.88352 
L 525.20972 145.88352 
L 525.20972 145.88352 
z
" style="fill:#808080;stroke:#808080;stroke-linejoin:miter;stroke-width:2;"/>
   </g>
   <g id="patch_67">
    <path clip-path="url(#pe1d5616aed)" d="M 596.556189 197.6832 
L 590.201742 204.43968 
L 590.201742 204.43968 
L 516.940962 204.43968 
L 516.940962 190.92672 
L 590.201742 190.92672 
L 590.201742 190.92672 
z
" style="fill:#808080;stroke:#808080;stroke-linejoin:miter;stroke-width:2;"/>
   </g>
   <g id="patch_68">
    <path clip-path="url(#pe1d5616aed)" d="M 596.556189 152.64 
L 590.201742 159.39648 
L 590.201742 159.39648 
L 548.550718 159.39648 
L 548.550718 145.88352 
L 590.201742 145.88352 
L 590.201742 145.88352 
z
" style="fill:#808080;stroke:#808080;stroke-linejoin:miter;stroke-width:2;"/>
   </g>
   <g id="patch_69">
    <path clip-path="url(#pe1d5616aed)" d="M 677.648507 220.2048 
L 671.29406 226.96128 
L 671.29406 226.96128 
L 548.550718 226.96128 
L 548.550718 213.44832 
L 671.29406 213.44832 
L 671.29406 213.44832 
z
" style="fill:#808080;stroke:#808080;stroke-linejoin:miter;stroke-width:2;"/>
   </g>
   <g id="patch_70">
    <path clip-path="url(#pe1d5616aed)" d="M 675.875997 175.1616 
L 669.52155 181.91808 
L 669.52155 181.91808 
L 612.065649 181.91808 
L 612.065649 168.40512 
L 669.52155 168.40512 
L 669.52155 168.40512 
z
" style="fill:#808080;stroke:#808080;stroke-linejoin:miter;stroke-width:2;"/>
   </g>
   <g id="patch_71">
    <path clip-path="url(#pe1d5616aed)" d="M 676.023706 152.64 
L 669.669259 159.39648 
L 669.669259 159.39648 
L 612.065649 159.39648 
L 612.065649 145.88352 
L 669.669259 145.88352 
L 669.669259 145.88352 
z
" style="fill:#808080;stroke:#808080;stroke-linejoin:miter;stroke-width:2;"/>
   </g>
   <g id="patch_72">
    <path clip-path="url(#pe1d5616aed)" d="M 677.648507 130.1184 
L 671.29406 136.87488 
L 671.29406 136.87488 
L 612.065649 136.87488 
L 612.065649 123.36192 
L 671.29406 123.36192 
L 671.29406 123.36192 
z
" style="fill:#808080;stroke:#808080;stroke-linejoin:miter;stroke-width:2;"/>
   </g>
   <g id="matplotlib.axis_1">
    <g id="xtick_1">
     <g id="line2d_1">
      <defs>
       <path d="M 0 0 
L 0 3.5 
" id="mf9254fc887" style="stroke:#000000;stroke-width:0.8;"/>
      </defs>
      <g>
       <use style="stroke:#000000;stroke-width:0.8;" x="116.058354" xlink:href="#mf9254fc887" y="250.56"/>
      </g>
     </g>
     <g id="text_1">
      <!-- 13420000 -->
      <defs>
       <path d="M 11.71875 12.984375 
L 28.328125 12.984375 
L 28.328125 60.109375 
L 11.28125 56.59375 
L 11.28125 69.390625 
L 28.21875 72.90625 
L 46.09375 72.90625 
L 46.09375 12.984375 
L 62.703125 12.984375 
L 62.703125 0 
L 11.71875 0 
z
" id="DejaVuSans-Bold-31"/>
       <path d="M 46.578125 39.3125 
Q 53.953125 37.40625 57.78125 32.6875 
Q 61.625 27.984375 61.625 20.703125 
Q 61.625 9.859375 53.3125 4.21875 
Q 45.015625 -1.421875 29.109375 -1.421875 
Q 23.484375 -1.421875 17.84375 -0.515625 
Q 12.203125 0.390625 6.6875 2.203125 
L 6.6875 16.703125 
Q 11.96875 14.0625 17.15625 12.71875 
Q 22.359375 11.375 27.390625 11.375 
Q 34.859375 11.375 38.84375 13.953125 
Q 42.828125 16.546875 42.828125 21.390625 
Q 42.828125 26.375 38.75 28.9375 
Q 34.671875 31.5 26.703125 31.5 
L 19.1875 31.5 
L 19.1875 43.609375 
L 27.09375 43.609375 
Q 34.1875 43.609375 37.640625 45.828125 
Q 41.109375 48.046875 41.109375 52.59375 
Q 41.109375 56.78125 37.734375 59.078125 
Q 34.375 61.375 28.21875 61.375 
Q 23.6875 61.375 19.046875 60.34375 
Q 14.40625 59.328125 9.8125 57.328125 
L 9.8125 71.09375 
Q 15.375 72.65625 20.84375 73.4375 
Q 26.3125 74.21875 31.59375 74.21875 
Q 45.796875 74.21875 52.84375 69.546875 
Q 59.90625 64.890625 59.90625 55.515625 
Q 59.90625 49.125 56.53125 45.046875 
Q 53.171875 40.96875 46.578125 39.3125 
z
" id="DejaVuSans-Bold-33"/>
       <path d="M 36.8125 57.421875 
L 16.21875 26.90625 
L 36.8125 26.90625 
z
M 33.6875 72.90625 
L 54.59375 72.90625 
L 54.59375 26.90625 
L 64.984375 26.90625 
L 64.984375 13.28125 
L 54.59375 13.28125 
L 54.59375 0 
L 36.8125 0 
L 36.8125 13.28125 
L 4.5 13.28125 
L 4.5 29.390625 
z
" id="DejaVuSans-Bold-34"/>
       <path d="M 28.8125 13.8125 
L 60.890625 13.8125 
L 60.890625 0 
L 7.90625 0 
L 7.90625 13.8125 
L 34.515625 37.3125 
Q 38.09375 40.53125 39.796875 43.609375 
Q 41.5 46.6875 41.5 50 
Q 41.5 55.125 38.0625 58.25 
Q 34.625 61.375 28.90625 61.375 
Q 24.515625 61.375 19.28125 59.5 
Q 14.0625 57.625 8.109375 53.90625 
L 8.109375 69.921875 
Q 14.453125 72.015625 20.65625 73.109375 
Q 26.859375 74.21875 32.8125 74.21875 
Q 45.90625 74.21875 53.15625 68.453125 
Q 60.40625 62.703125 60.40625 52.390625 
Q 60.40625 46.4375 57.328125 41.28125 
Q 54.25 36.140625 44.390625 27.484375 
z
" id="DejaVuSans-Bold-32"/>
       <path d="M 46 36.53125 
Q 46 50.203125 43.4375 55.78125 
Q 40.875 61.375 34.8125 61.375 
Q 28.765625 61.375 26.171875 55.78125 
Q 23.578125 50.203125 23.578125 36.53125 
Q 23.578125 22.703125 26.171875 17.03125 
Q 28.765625 11.375 34.8125 11.375 
Q 40.828125 11.375 43.40625 17.03125 
Q 46 22.703125 46 36.53125 
z
M 64.796875 36.375 
Q 64.796875 18.265625 56.984375 8.421875 
Q 49.171875 -1.421875 34.8125 -1.421875 
Q 20.40625 -1.421875 12.59375 8.421875 
Q 4.78125 18.265625 4.78125 36.375 
Q 4.78125 54.546875 12.59375 64.375 
Q 20.40625 74.21875 34.8125 74.21875 
Q 49.171875 74.21875 56.984375 64.375 
Q 64.796875 54.546875 64.796875 36.375 
z
" id="DejaVuSans-Bold-30"/>
      </defs>
      <g transform="translate(82.660854 266.678125)scale(0.12 -0.12)">
       <use xlink:href="#DejaVuSans-Bold-31"/>
       <use x="69.580078" xlink:href="#DejaVuSans-Bold-33"/>
       <use x="139.160156" xlink:href="#DejaVuSans-Bold-34"/>
       <use x="208.740234" xlink:href="#DejaVuSans-Bold-32"/>
       <use x="278.320312" xlink:href="#DejaVuSans-Bold-30"/>
       <use x="347.900391" xlink:href="#DejaVuSans-Bold-30"/>
       <use x="417.480469" xlink:href="#DejaVuSans-Bold-30"/>
       <use x="487.060547" xlink:href="#DejaVuSans-Bold-30"/>
      </g>
     </g>
    </g>
    <g id="xtick_2">
     <g id="line2d_2">
      <g>
       <use style="stroke:#000000;stroke-width:0.8;" x="263.767495" xlink:href="#mf9254fc887" y="250.56"/>
      </g>
     </g>
     <g id="text_2">
      <!-- 13421000 -->
      <g transform="translate(230.369995 266.678125)scale(0.12 -0.12)">
       <use xlink:href="#DejaVuSans-Bold-31"/>
       <use x="69.580078" xlink:href="#DejaVuSans-Bold-33"/>
       <use x="139.160156" xlink:href="#DejaVuSans-Bold-34"/>
       <use x="208.740234" xlink:href="#DejaVuSans-Bold-32"/>
       <use x="278.320312" xlink:href="#DejaVuSans-Bold-31"/>
       <use x="347.900391" xlink:href="#DejaVuSans-Bold-30"/>
       <use x="417.480469" xlink:href="#DejaVuSans-Bold-30"/>
       <use x="487.060547" xlink:href="#DejaVuSans-Bold-30"/>
      </g>
     </g>
    </g>
    <g id="xtick_3">
     <g id="line2d_3">
      <g>
       <use style="stroke:#000000;stroke-width:0.8;" x="411.476636" xlink:href="#mf9254fc887" y="250.56"/>
      </g>
     </g>
     <g id="text_3">
      <!-- 13422000 -->
      <g transform="translate(378.079136 266.678125)scale(0.12 -0.12)">
       <use xlink:href="#DejaVuSans-Bold-31"/>
       <use x="69.580078" xlink:href="#DejaVuSans-Bold-33"/>
       <use x="139.160156" xlink:href="#DejaVuSans-Bold-34"/>
       <use x="208.740234" xlink:href="#DejaVuSans-Bold-32"/>
       <use x="278.320312" xlink:href="#DejaVuSans-Bold-32"/>
       <use x="347.900391" xlink:href="#DejaVuSans-Bold-30"/>
       <use x="417.480469" xlink:href="#DejaVuSans-Bold-30"/>
       <use x="487.060547" xlink:href="#DejaVuSans-Bold-30"/>
      </g>
     </g>
    </g>
    <g id="xtick_4">
     <g id="line2d_4">
      <g>
       <use style="stroke:#000000;stroke-width:0.8;" x="559.185776" xlink:href="#mf9254fc887" y="250.56"/>
      </g>
     </g>
     <g id="text_4">
      <!-- 13423000 -->
      <g transform="translate(525.788276 266.678125)scale(0.12 -0.12)">
       <use xlink:href="#DejaVuSans-Bold-31"/>
       <use x="69.580078" xlink:href="#DejaVuSans-Bold-33"/>
       <use x="139.160156" xlink:href="#DejaVuSans-Bold-34"/>
       <use x="208.740234" xlink:href="#DejaVuSans-Bold-32"/>
       <use x="278.320312" xlink:href="#DejaVuSans-Bold-33"/>
       <use x="347.900391" xlink:href="#DejaVuSans-Bold-30"/>
       <use x="417.480469" xlink:href="#DejaVuSans-Bold-30"/>
       <use x="487.060547" xlink:href="#DejaVuSans-Bold-30"/>
      </g>
     </g>
    </g>
   </g>
   <g id="matplotlib.axis_2">
    <g id="ytick_1">
     <g id="line2d_5">
      <defs>
       <path d="M 0 0 
L -3.5 0 
" id="md8951a446f" style="stroke:#000000;stroke-width:0.8;"/>
      </defs>
      <g>
       <use style="stroke:#000000;stroke-width:0.8;" x="36" xlink:href="#md8951a446f" y="250.56"/>
      </g>
     </g>
    </g>
    <g id="ytick_2">
     <g id="line2d_6">
      <g>
       <use style="stroke:#000000;stroke-width:0.8;" x="36" xlink:href="#md8951a446f" y="211.392"/>
      </g>
     </g>
    </g>
    <g id="ytick_3">
     <g id="line2d_7">
      <g>
       <use style="stroke:#000000;stroke-width:0.8;" x="36" xlink:href="#md8951a446f" y="172.224"/>
      </g>
     </g>
    </g>
    <g id="ytick_4">
     <g id="line2d_8">
      <g>
       <use style="stroke:#000000;stroke-width:0.8;" x="36" xlink:href="#md8951a446f" y="133.056"/>
      </g>
     </g>
    </g>
    <g id="ytick_5">
     <g id="line2d_9">
      <g>
       <use style="stroke:#000000;stroke-width:0.8;" x="36" xlink:href="#md8951a446f" y="93.888"/>
      </g>
     </g>
    </g>
    <g id="ytick_6">
     <g id="line2d_10">
      <g>
       <use style="stroke:#000000;stroke-width:0.8;" x="36" xlink:href="#md8951a446f" y="54.72"/>
      </g>
     </g>
    </g>
   </g>
   <g id="patch_73">
    <path d="M 36 250.56 
L 36 54.72 
" style="fill:none;stroke:#000000;stroke-linecap:square;stroke-linejoin:miter;stroke-width:0.8;"/>
   </g>
   <g id="patch_74">
    <path d="M 684 250.56 
L 684 54.72 
" style="fill:none;stroke:#000000;stroke-linecap:square;stroke-linejoin:miter;stroke-width:0.8;"/>
   </g>
   <g id="patch_75">
    <path d="M 36 250.56 
L 684 250.56 
" style="fill:none;stroke:#000000;stroke-linecap:square;stroke-linejoin:miter;stroke-width:0.8;"/>
   </g>
   <g id="patch_76">
    <path d="M 36 54.72 
L 684 54.72 
" style="fill:none;stroke:#000000;stroke-linecap:square;stroke-linejoin:miter;stroke-width:0.8;"/>
   </g>
   <g id="text_5">
    <!-- AT4G26600 -->
    <defs>
     <path d="M 53.421875 13.28125 
L 24.03125 13.28125 
L 19.390625 0 
L 0.484375 0 
L 27.484375 72.90625 
L 49.90625 72.90625 
L 76.90625 0 
L 58.015625 0 
z
M 28.71875 26.8125 
L 48.6875 26.8125 
L 38.71875 55.8125 
z
" id="DejaVuSans-Bold-41"/>
     <path d="M 0.484375 72.90625 
L 67.671875 72.90625 
L 67.671875 58.6875 
L 43.5 58.6875 
L 43.5 0 
L 24.703125 0 
L 24.703125 58.6875 
L 0.484375 58.6875 
z
" id="DejaVuSans-Bold-54"/>
     <path d="M 74.703125 5.421875 
Q 67.671875 2 60.109375 0.28125 
Q 52.546875 -1.421875 44.484375 -1.421875 
Q 26.265625 -1.421875 15.625 8.765625 
Q 4.984375 18.953125 4.984375 36.375 
Q 4.984375 54 15.8125 64.109375 
Q 26.65625 74.21875 45.515625 74.21875 
Q 52.78125 74.21875 59.4375 72.84375 
Q 66.109375 71.484375 72.015625 68.796875 
L 72.015625 53.71875 
Q 65.921875 57.171875 59.890625 58.875 
Q 53.859375 60.59375 47.796875 60.59375 
Q 36.578125 60.59375 30.5 54.3125 
Q 24.421875 48.046875 24.421875 36.375 
Q 24.421875 24.8125 30.28125 18.5 
Q 36.140625 12.203125 46.921875 12.203125 
Q 49.859375 12.203125 52.375 12.5625 
Q 54.890625 12.9375 56.890625 13.71875 
L 56.890625 27.875 
L 45.40625 27.875 
L 45.40625 40.484375 
L 74.703125 40.484375 
z
" id="DejaVuSans-Bold-47"/>
     <path d="M 36.1875 35.984375 
Q 31.25 35.984375 28.78125 32.78125 
Q 26.3125 29.59375 26.3125 23.1875 
Q 26.3125 16.796875 28.78125 13.59375 
Q 31.25 10.40625 36.1875 10.40625 
Q 41.15625 10.40625 43.625 13.59375 
Q 46.09375 16.796875 46.09375 23.1875 
Q 46.09375 29.59375 43.625 32.78125 
Q 41.15625 35.984375 36.1875 35.984375 
z
M 59.421875 71 
L 59.421875 57.515625 
Q 54.78125 59.71875 50.671875 60.765625 
Q 46.578125 61.8125 42.671875 61.8125 
Q 34.28125 61.8125 29.59375 57.140625 
Q 24.90625 52.484375 24.125 43.3125 
Q 27.34375 45.703125 31.09375 46.890625 
Q 34.859375 48.09375 39.3125 48.09375 
Q 50.484375 48.09375 57.34375 41.546875 
Q 64.203125 35.015625 64.203125 24.421875 
Q 64.203125 12.703125 56.53125 5.640625 
Q 48.875 -1.421875 35.984375 -1.421875 
Q 21.78125 -1.421875 13.984375 8.171875 
Q 6.203125 17.78125 6.203125 35.40625 
Q 6.203125 53.46875 15.3125 63.796875 
Q 24.421875 74.125 40.28125 74.125 
Q 45.3125 74.125 50.046875 73.34375 
Q 54.78125 72.5625 59.421875 71 
z
" id="DejaVuSans-Bold-36"/>
    </defs>
    <g transform="translate(333.066394 245.024407)scale(0.08328 -0.08328)">
     <use xlink:href="#DejaVuSans-Bold-41"/>
     <use x="77.283203" xlink:href="#DejaVuSans-Bold-54"/>
     <use x="145.496094" xlink:href="#DejaVuSans-Bold-34"/>
     <use x="215.076172" xlink:href="#DejaVuSans-Bold-47"/>
     <use x="297.15625" xlink:href="#DejaVuSans-Bold-32"/>
     <use x="366.736328" xlink:href="#DejaVuSans-Bold-36"/>
     <use x="436.316406" xlink:href="#DejaVuSans-Bold-36"/>
     <use x="505.896484" xlink:href="#DejaVuSans-Bold-30"/>
     <use x="575.476562" xlink:href="#DejaVuSans-Bold-30"/>
    </g>
   </g>
   <g id="text_6">
    <!-- AT4G26600 (+) -->
    <defs>
     <path d="M 34.1875 63.1875 
L 20.796875 26.90625 
L 47.609375 26.90625 
z
M 28.609375 72.90625 
L 39.796875 72.90625 
L 67.578125 0 
L 57.328125 0 
L 50.6875 18.703125 
L 17.828125 18.703125 
L 11.1875 0 
L 0.78125 0 
z
" id="DejaVuSans-41"/>
     <path d="M -0.296875 72.90625 
L 61.375 72.90625 
L 61.375 64.59375 
L 35.5 64.59375 
L 35.5 0 
L 25.59375 0 
L 25.59375 64.59375 
L -0.296875 64.59375 
z
" id="DejaVuSans-54"/>
     <path d="M 37.796875 64.3125 
L 12.890625 25.390625 
L 37.796875 25.390625 
z
M 35.203125 72.90625 
L 47.609375 72.90625 
L 47.609375 25.390625 
L 58.015625 25.390625 
L 58.015625 17.1875 
L 47.609375 17.1875 
L 47.609375 0 
L 37.796875 0 
L 37.796875 17.1875 
L 4.890625 17.1875 
L 4.890625 26.703125 
z
" id="DejaVuSans-34"/>
     <path d="M 59.515625 10.40625 
L 59.515625 29.984375 
L 43.40625 29.984375 
L 43.40625 38.09375 
L 69.28125 38.09375 
L 69.28125 6.78125 
Q 63.578125 2.734375 56.6875 0.65625 
Q 49.8125 -1.421875 42 -1.421875 
Q 24.90625 -1.421875 15.25 8.5625 
Q 5.609375 18.5625 5.609375 36.375 
Q 5.609375 54.25 15.25 64.234375 
Q 24.90625 74.21875 42 74.21875 
Q 49.125 74.21875 55.546875 72.453125 
Q 61.96875 70.703125 67.390625 67.28125 
L 67.390625 56.78125 
Q 61.921875 61.421875 55.765625 63.765625 
Q 49.609375 66.109375 42.828125 66.109375 
Q 29.4375 66.109375 22.71875 58.640625 
Q 16.015625 51.171875 16.015625 36.375 
Q 16.015625 21.625 22.71875 14.15625 
Q 29.4375 6.6875 42.828125 6.6875 
Q 48.046875 6.6875 52.140625 7.59375 
Q 56.25 8.5 59.515625 10.40625 
z
" id="DejaVuSans-47"/>
     <path d="M 19.1875 8.296875 
L 53.609375 8.296875 
L 53.609375 0 
L 7.328125 0 
L 7.328125 8.296875 
Q 12.9375 14.109375 22.625 23.890625 
Q 32.328125 33.6875 34.8125 36.53125 
Q 39.546875 41.84375 41.421875 45.53125 
Q 43.3125 49.21875 43.3125 52.78125 
Q 43.3125 58.59375 39.234375 62.25 
Q 35.15625 65.921875 28.609375 65.921875 
Q 23.96875 65.921875 18.8125 64.3125 
Q 13.671875 62.703125 7.8125 59.421875 
L 7.8125 69.390625 
Q 13.765625 71.78125 18.9375 73 
Q 24.125 74.21875 28.421875 74.21875 
Q 39.75 74.21875 46.484375 68.546875 
Q 53.21875 62.890625 53.21875 53.421875 
Q 53.21875 48.921875 51.53125 44.890625 
Q 49.859375 40.875 45.40625 35.40625 
Q 44.1875 33.984375 37.640625 27.21875 
Q 31.109375 20.453125 19.1875 8.296875 
z
" id="DejaVuSans-32"/>
     <path d="M 33.015625 40.375 
Q 26.375 40.375 22.484375 35.828125 
Q 18.609375 31.296875 18.609375 23.390625 
Q 18.609375 15.53125 22.484375 10.953125 
Q 26.375 6.390625 33.015625 6.390625 
Q 39.65625 6.390625 43.53125 10.953125 
Q 47.40625 15.53125 47.40625 23.390625 
Q 47.40625 31.296875 43.53125 35.828125 
Q 39.65625 40.375 33.015625 40.375 
z
M 52.59375 71.296875 
L 52.59375 62.3125 
Q 48.875 64.0625 45.09375 64.984375 
Q 41.3125 65.921875 37.59375 65.921875 
Q 27.828125 65.921875 22.671875 59.328125 
Q 17.53125 52.734375 16.796875 39.40625 
Q 19.671875 43.65625 24.015625 45.921875 
Q 28.375 48.1875 33.59375 48.1875 
Q 44.578125 48.1875 50.953125 41.515625 
Q 57.328125 34.859375 57.328125 23.390625 
Q 57.328125 12.15625 50.6875 5.359375 
Q 44.046875 -1.421875 33.015625 -1.421875 
Q 20.359375 -1.421875 13.671875 8.265625 
Q 6.984375 17.96875 6.984375 36.375 
Q 6.984375 53.65625 15.1875 63.9375 
Q 23.390625 74.21875 37.203125 74.21875 
Q 40.921875 74.21875 44.703125 73.484375 
Q 48.484375 72.75 52.59375 71.296875 
z
" id="DejaVuSans-36"/>
     <path d="M 31.78125 66.40625 
Q 24.171875 66.40625 20.328125 58.90625 
Q 16.5 51.421875 16.5 36.375 
Q 16.5 21.390625 20.328125 13.890625 
Q 24.171875 6.390625 31.78125 6.390625 
Q 39.453125 6.390625 43.28125 13.890625 
Q 47.125 21.390625 47.125 36.375 
Q 47.125 51.421875 43.28125 58.90625 
Q 39.453125 66.40625 31.78125 66.40625 
z
M 31.78125 74.21875 
Q 44.046875 74.21875 50.515625 64.515625 
Q 56.984375 54.828125 56.984375 36.375 
Q 56.984375 17.96875 50.515625 8.265625 
Q 44.046875 -1.421875 31.78125 -1.421875 
Q 19.53125 -1.421875 13.0625 8.265625 
Q 6.59375 17.96875 6.59375 36.375 
Q 6.59375 54.828125 13.0625 64.515625 
Q 19.53125 74.21875 31.78125 74.21875 
z
" id="DejaVuSans-30"/>
     <path id="DejaVuSans-20"/>
     <path d="M 31 75.875 
Q 24.46875 64.65625 21.28125 53.65625 
Q 18.109375 42.671875 18.109375 31.390625 
Q 18.109375 20.125 21.3125 9.0625 
Q 24.515625 -2 31 -13.1875 
L 23.1875 -13.1875 
Q 15.875 -1.703125 12.234375 9.375 
Q 8.59375 20.453125 8.59375 31.390625 
Q 8.59375 42.28125 12.203125 53.3125 
Q 15.828125 64.359375 23.1875 75.875 
z
" id="DejaVuSans-28"/>
     <path d="M 46 62.703125 
L 46 35.5 
L 73.1875 35.5 
L 73.1875 27.203125 
L 46 27.203125 
L 46 0 
L 37.796875 0 
L 37.796875 27.203125 
L 10.59375 27.203125 
L 10.59375 35.5 
L 37.796875 35.5 
L 37.796875 62.703125 
z
" id="DejaVuSans-2b"/>
     <path d="M 8.015625 75.875 
L 15.828125 75.875 
Q 23.140625 64.359375 26.78125 53.3125 
Q 30.421875 42.28125 30.421875 31.390625 
Q 30.421875 20.453125 26.78125 9.375 
Q 23.140625 -1.703125 15.828125 -13.1875 
L 8.015625 -13.1875 
Q 14.5 -2 17.703125 9.0625 
Q 20.90625 20.125 20.90625 31.390625 
Q 20.90625 42.671875 17.703125 53.65625 
Q 14.5 64.65625 8.015625 75.875 
z
" id="DejaVuSans-29"/>
    </defs>
    <g transform="translate(303.68025 48.72)scale(0.144 -0.144)">
     <use xlink:href="#DejaVuSans-41"/>
     <use x="68.298828" xlink:href="#DejaVuSans-54"/>
     <use x="129.382812" xlink:href="#DejaVuSans-34"/>
     <use x="193.005859" xlink:href="#DejaVuSans-47"/>
     <use x="270.496094" xlink:href="#DejaVuSans-32"/>
     <use x="334.119141" xlink:href="#DejaVuSans-36"/>
     <use x="397.742188" xlink:href="#DejaVuSans-36"/>
     <use x="461.365234" xlink:href="#DejaVuSans-30"/>
     <use x="524.988281" xlink:href="#DejaVuSans-30"/>
     <use x="588.611328" xlink:href="#DejaVuSans-20"/>
     <use x="620.398438" xlink:href="#DejaVuSans-28"/>
     <use x="659.412109" xlink:href="#DejaVuSans-2b"/>
     <use x="743.201172" xlink:href="#DejaVuSans-29"/>
    </g>
   </g>
  </g>
 </g>
 <defs>
  <clipPath id="pe1d5616aed">
   <rect height="195.84" width="648" x="36" y="54.72"/>
  </clipPath>
 </defs>
</svg>
