<?xml version="1.0" encoding="utf-8" standalone="no"?>
<!DOCTYPE svg PUBLIC "-//W3C//DTD SVG 1.1//EN"
  "http://www.w3.org/Graphics/SVG/1.1/DTD/svg11.dtd">
<!-- Created with matplotlib (http://matplotlib.org/) -->
<svg height="288pt" version="1.1" viewBox="0 0 720 288" width="720pt" xmlns="http://www.w3.org/2000/svg" xmlns:xlink="http://www.w3.org/1999/xlink">
 <defs>
  <style type="text/css">
*{stroke-linecap:butt;stroke-linejoin:round;}
  </style>
 </defs>
 <g id="figure_1">
  <g id="patch_1">
   <path d="M 0 288
L 720 288
L 720 0
L 0 0
z
" style="fill:#ffffff;"/>
  </g>
  <g id="axes_1">
   <g id="patch_2">
    <path d="M 36 250.56
L 684 250.56
L 684 54.72
L 36 54.72
z
" style="fill:#ffffff;"/>
   </g>
   <g id="patch_3">
    <path clip-path="url(#pbbc124566f)" d="M 1196.140704 250.56
L 1196.140704 54.72
L 472.522613 54.72
L 472.522613 250.56
z
" style="fill:#0000ff;opacity:0.1;stroke:#777777;stroke-linejoin:miter;"/>
   </g>
   <g id="patch_4">
    <path clip-path="url(#pbbc124566f)" d="M 454.974874 250.56
L 454.974874 54.72
L 435.61809 54.72
L 435.61809 250.56
z
" style="fill:#0000ff;opacity:0.1;stroke:#777777;stroke-linejoin:miter;"/>
   </g>
   <g id="patch_5">
    <path clip-path="url(#pbbc124566f)" d="M 420.241206 250.56
L 420.241206 54.72
L 399.437186 54.72
L 399.437186 250.56
z
" style="fill:#0000ff;opacity:0.1;stroke:#777777;stroke-linejoin:miter;"/>
   </g>
   <g id="patch_6">
    <path clip-path="url(#pbbc124566f)" d="M 383.879397 250.56
L 383.879397 54.72
L 361.085427 54.72
L 361.085427 250.56
z
" style="fill:#0000ff;opacity:0.1;stroke:#777777;stroke-linejoin:miter;"/>
   </g>
   <g id="patch_7">
    <path clip-path="url(#pbbc124566f)" d="M 344.080402 250.56
L 344.080402 54.72
L 313.507538 54.72
L 313.507538 250.56
z
" style="fill:#0000ff;opacity:0.1;stroke:#777777;stroke-linejoin:miter;"/>
   </g>
   <g id="patch_8">
    <path clip-path="url(#pbbc124566f)" d="M 296.683417 250.56
L 296.683417 54.72
L 282.572864 54.72
L 282.572864 250.56
z
" style="fill:#0000ff;opacity:0.1;stroke:#777777;stroke-linejoin:miter;"/>
   </g>
   <g id="patch_9">
    <path clip-path="url(#pbbc124566f)" d="M 266.291457 250.56
L 266.291457 54.72
L 246.211055 54.72
L 246.211055 250.56
z
" style="fill:#0000ff;opacity:0.1;stroke:#777777;stroke-linejoin:miter;"/>
   </g>
   <g id="patch_10">
    <path clip-path="url(#pbbc124566f)" d="M 227.758794 250.56
L 227.758794 54.72
L 220.341709 54.72
L 220.341709 250.56
z
" style="fill:#0000ff;opacity:0.1;stroke:#777777;stroke-linejoin:miter;"/>
   </g>
   <g id="patch_11">
    <path clip-path="url(#pbbc124566f)" d="M 205.507538 250.56
L 205.507538 54.72
L 181.98995 54.72
L 181.98995 250.56
z
" style="fill:#0000ff;opacity:0.1;stroke:#777777;stroke-linejoin:miter;"/>
   </g>
   <g id="patch_12">
    <path clip-path="url(#pbbc124566f)" d="M 134.592965 250.56
L 134.592965 54.72
L 42.331658 54.72
L 42.331658 250.56
z
" style="fill:#0000ff;opacity:0.1;stroke:#777777;stroke-linejoin:miter;"/>
   </g>
   <g id="patch_13">
    <path clip-path="url(#pbbc124566f)" d="M 296.683417 165.509486
C 305.095477 165.509486 305.095477 165.509486 313.507538 165.509486
" style="fill:none;stroke:#808080;stroke-linejoin:miter;"/>
   </g>
   <g id="patch_14">
    <path clip-path="url(#pbbc124566f)" d="M 383.879397 165.509486
C 391.658291 165.509486 391.658291 165.509486 399.437186 165.509486
" style="fill:none;stroke:#808080;stroke-linejoin:miter;"/>
   </g>
   <g id="patch_15">
    <path clip-path="url(#pbbc124566f)" d="M 266.291457 165.509486
C 274.432161 165.509486 274.432161 165.509486 282.572864 165.509486
" style="fill:none;stroke:#808080;stroke-linejoin:miter;"/>
   </g>
   <g id="patch_16">
    <path clip-path="url(#pbbc124566f)" d="M 205.507538 165.509486
C 212.924623 165.509486 212.924623 165.509486 220.341709 165.509486
" style="fill:none;stroke:#808080;stroke-linejoin:miter;"/>
   </g>
   <g id="patch_17">
    <path clip-path="url(#pbbc124566f)" d="M 344.080402 165.509486
C 352.582915 165.509486 352.582915 165.509486 361.085427 165.509486
" style="fill:none;stroke:#808080;stroke-linejoin:miter;"/>
   </g>
   <g id="patch_18">
    <path clip-path="url(#pbbc124566f)" d="M 60.422111 165.509486
C 70.914573 165.509486 70.914573 165.509486 81.407035 165.509486
" style="fill:none;stroke:#808080;stroke-linejoin:miter;"/>
   </g>
   <g id="patch_19">
    <path clip-path="url(#pbbc124566f)" d="M 134.592965 139.770514
C 158.291457 139.770514 158.291457 165.509486 181.98995 165.509486
" style="fill:none;stroke:#808080;stroke-linejoin:miter;"/>
   </g>
   <g id="patch_20">
    <path clip-path="url(#pbbc124566f)" d="M 227.758794 165.509486
C 236.984925 165.509486 236.984925 165.509486 246.211055 165.509486
" style="fill:none;stroke:#808080;stroke-linejoin:miter;"/>
   </g>
   <g id="patch_21">
    <path clip-path="url(#pbbc124566f)" d="M 583.236181 165.509486
C 592.643216 165.509486 592.643216 165.509486 602.050251 165.509486
" style="fill:none;stroke:#808080;stroke-linejoin:miter;"/>
   </g>
   <g id="patch_22">
    <path clip-path="url(#pbbc124566f)" d="M 534.211055 165.509486
C 542.894472 165.509486 542.894472 114.031543 551.577889 114.031543
" style="fill:none;stroke:#808080;stroke-linejoin:miter;"/>
   </g>
   <g id="patch_23">
    <path clip-path="url(#pbbc124566f)" d="M 534.211055 165.509486
C 570.934673 165.509486 570.934673 191.248457 607.658291 191.248457
" style="fill:none;stroke:#808080;stroke-linejoin:miter;"/>
   </g>
   <g id="patch_24">
    <path clip-path="url(#pbbc124566f)" d="M 534.211055 165.509486
C 542.894472 165.509486 542.894472 165.509486 551.577889 165.509486
" style="fill:none;stroke:#808080;stroke-linejoin:miter;"/>
   </g>
   <g id="patch_25">
    <path clip-path="url(#pbbc124566f)" d="M 454.974874 165.509486
C 463.748744 165.509486 463.748744 165.509486 472.522613 165.509486
" style="fill:none;stroke:#808080;stroke-linejoin:miter;"/>
   </g>
   <g id="patch_26">
    <path clip-path="url(#pbbc124566f)" d="M 454.974874 165.509486
C 463.748744 165.509486 463.748744 88.292571 472.522613 88.292571
" style="fill:none;stroke:#808080;stroke-linejoin:miter;"/>
   </g>
   <g id="patch_27">
    <path clip-path="url(#pbbc124566f)" d="M 454.974874 165.509486
C 463.748744 165.509486 463.748744 216.987429 472.522613 216.987429
" style="fill:none;stroke:#808080;stroke-linejoin:miter;"/>
   </g>
   <g id="patch_28">
    <path clip-path="url(#pbbc124566f)" d="M 534.211055 88.292571
C 542.894472 88.292571 542.894472 114.031543 551.577889 114.031543
" style="fill:none;stroke:#808080;stroke-linejoin:miter;"/>
   </g>
   <g id="patch_29">
    <path clip-path="url(#pbbc124566f)" d="M 483.738693 165.509486
C 493.326633 165.509486 493.326633 139.770514 502.914573 139.770514
" style="fill:none;stroke:#808080;stroke-linejoin:miter;"/>
   </g>
   <g id="patch_30">
    <path clip-path="url(#pbbc124566f)" d="M 483.738693 165.509486
C 493.326633 165.509486 493.326633 165.509486 502.914573 165.509486
" style="fill:none;stroke:#808080;stroke-linejoin:miter;"/>
   </g>
   <g id="patch_31">
    <path clip-path="url(#pbbc124566f)" d="M 134.592965 165.509486
C 158.291457 165.509486 158.291457 165.509486 181.98995 165.509486
" style="fill:none;stroke:#808080;stroke-linejoin:miter;"/>
   </g>
   <g id="patch_32">
    <path clip-path="url(#pbbc124566f)" d="M 134.592965 191.248457
C 158.291457 191.248457 158.291457 165.509486 181.98995 165.509486
" style="fill:none;stroke:#808080;stroke-linejoin:miter;"/>
   </g>
   <g id="patch_33">
    <path clip-path="url(#pbbc124566f)" d="M 420.241206 165.509486
C 427.929648 165.509486 427.929648 165.509486 435.61809 165.509486
" style="fill:none;stroke:#808080;stroke-linejoin:miter;"/>
   </g>
   <g id="patch_34">
    <path clip-path="url(#pbbc124566f)" d="M 677.668342 250.56
L 42.150754 250.56
L 42.150754 234.8928
L 677.668342 234.8928
z
" style="fill:#d0d0d0;stroke:#d0d0d0;stroke-linejoin:miter;"/>
   </g>
   <g id="patch_35">
    <path clip-path="url(#pbbc124566f)" d="M 677.668342 114.031543
L 671.313166 106.309851
L 671.313166 106.309851
L 551.577889 106.309851
L 551.577889 121.753234
L 671.313166 121.753234
L 671.313166 121.753234
z
" style="fill:#808080;stroke:#808080;stroke-linejoin:miter;stroke-width:2;"/>
   </g>
   <g id="patch_36">
    <path clip-path="url(#pbbc124566f)" d="M 677.668342 139.770514
L 671.313166 132.048823
L 671.313166 132.048823
L 502.914573 132.048823
L 502.914573 147.492206
L 671.313166 147.492206
L 671.313166 147.492206
z
" style="fill:#808080;stroke:#808080;stroke-linejoin:miter;stroke-width:2;"/>
   </g>
   <g id="patch_37">
    <path clip-path="url(#pbbc124566f)" d="M 664.643216 216.987429
L 658.28804 209.265737
L 658.28804 209.265737
L 472.522613 209.265737
L 472.522613 224.70912
L 658.28804 224.70912
L 658.28804 224.70912
z
" style="fill:#808080;stroke:#808080;stroke-linejoin:miter;stroke-width:2;"/>
   </g>
   <g id="patch_38">
    <path clip-path="url(#pbbc124566f)" d="M 650.713568 165.509486
L 644.358392 157.787794
L 644.358392 157.787794
L 602.050251 157.787794
L 602.050251 173.231177
L 644.358392 173.231177
L 644.358392 173.231177
z
" style="fill:#808080;stroke:#808080;stroke-linejoin:miter;stroke-width:2;"/>
   </g>
   <g id="patch_39">
    <path clip-path="url(#pbbc124566f)" d="M 650.532663 191.248457
L 644.177487 183.526766
L 644.177487 183.526766
L 607.658291 183.526766
L 607.658291 198.970149
L 644.177487 198.970149
L 644.177487 198.970149
z
" style="fill:#808080;stroke:#808080;stroke-linejoin:miter;stroke-width:2;"/>
   </g>
   <g id="patch_40">
    <path clip-path="url(#pbbc124566f)" d="M 583.236181 165.509486
L 576.881005 157.787794
L 576.881005 157.787794
L 551.577889 157.787794
L 551.577889 173.231177
L 576.881005 173.231177
L 576.881005 173.231177
z
" style="fill:#808080;stroke:#808080;stroke-linejoin:miter;stroke-width:2;"/>
   </g>
   <g id="patch_41">
    <path clip-path="url(#pbbc124566f)" d="M 534.211055 165.509486
L 527.855879 157.787794
L 527.855879 157.787794
L 502.914573 157.787794
L 502.914573 173.231177
L 527.855879 173.231177
L 527.855879 173.231177
z
" style="fill:#808080;stroke:#808080;stroke-linejoin:miter;stroke-width:2;"/>
   </g>
   <g id="patch_42">
    <path clip-path="url(#pbbc124566f)" d="M 534.211055 88.292571
L 527.855879 80.57088
L 527.855879 80.57088
L 472.522613 80.57088
L 472.522613 96.014263
L 527.855879 96.014263
L 527.855879 96.014263
z
" style="fill:#808080;stroke:#808080;stroke-linejoin:miter;stroke-width:2;"/>
   </g>
   <g id="patch_43">
    <path clip-path="url(#pbbc124566f)" d="M 483.738693 165.509486
L 478.130653 157.787794
L 478.130653 157.787794
L 472.522613 157.787794
L 472.522613 173.231177
L 478.130653 173.231177
L 478.130653 173.231177
z
" style="fill:#808080;stroke:#808080;stroke-linejoin:miter;stroke-width:2;"/>
   </g>
   <g id="patch_44">
    <path clip-path="url(#pbbc124566f)" d="M 454.974874 165.509486
L 448.619698 157.787794
L 448.619698 157.787794
L 435.61809 157.787794
L 435.61809 173.231177
L 448.619698 173.231177
L 448.619698 173.231177
z
" style="fill:#808080;stroke:#808080;stroke-linejoin:miter;stroke-width:2;"/>
   </g>
   <g id="patch_45">
    <path clip-path="url(#pbbc124566f)" d="M 420.241206 165.509486
L 413.88603 157.787794
L 413.88603 157.787794
L 399.437186 157.787794
L 399.437186 173.231177
L 413.88603 173.231177
L 413.88603 173.231177
z
" style="fill:#808080;stroke:#808080;stroke-linejoin:miter;stroke-width:2;"/>
   </g>
   <g id="patch_46">
    <path clip-path="url(#pbbc124566f)" d="M 383.879397 165.509486
L 377.524221 157.787794
L 377.524221 157.787794
L 361.085427 157.787794
L 361.085427 173.231177
L 377.524221 173.231177
L 377.524221 173.231177
z
" style="fill:#808080;stroke:#808080;stroke-linejoin:miter;stroke-width:2;"/>
   </g>
   <g id="patch_47">
    <path clip-path="url(#pbbc124566f)" d="M 344.080402 165.509486
L 337.725226 157.787794
L 337.725226 157.787794
L 313.507538 157.787794
L 313.507538 173.231177
L 337.725226 173.231177
L 337.725226 173.231177
z
" style="fill:#808080;stroke:#808080;stroke-linejoin:miter;stroke-width:2;"/>
   </g>
   <g id="patch_48">
    <path clip-path="url(#pbbc124566f)" d="M 296.683417 165.509486
L 290.328241 157.787794
L 290.328241 157.787794
L 282.572864 157.787794
L 282.572864 173.231177
L 290.328241 173.231177
L 290.328241 173.231177
z
" style="fill:#808080;stroke:#808080;stroke-linejoin:miter;stroke-width:2;"/>
   </g>
   <g id="patch_49">
    <path clip-path="url(#pbbc124566f)" d="M 266.291457 165.509486
L 259.936281 157.787794
L 259.936281 157.787794
L 246.211055 157.787794
L 246.211055 173.231177
L 259.936281 173.231177
L 259.936281 173.231177
z
" style="fill:#808080;stroke:#808080;stroke-linejoin:miter;stroke-width:2;"/>
   </g>
   <g id="patch_50">
    <path clip-path="url(#pbbc124566f)" d="M 227.758794 165.509486
L 223.959799 157.787794
L 223.959799 157.787794
L 220.341709 157.787794
L 220.341709 173.231177
L 223.959799 173.231177
L 223.959799 173.231177
z
" style="fill:#808080;stroke:#808080;stroke-linejoin:miter;stroke-width:2;"/>
   </g>
   <g id="patch_51">
    <path clip-path="url(#pbbc124566f)" d="M 205.507538 165.509486
L 199.152362 157.787794
L 199.152362 157.787794
L 181.98995 157.787794
L 181.98995 173.231177
L 199.152362 173.231177
L 199.152362 173.231177
z
" style="fill:#808080;stroke:#808080;stroke-linejoin:miter;stroke-width:2;"/>
   </g>
   <g id="patch_52">
    <path clip-path="url(#pbbc124566f)" d="M 134.592965 165.509486
L 128.237789 157.787794
L 128.237789 157.787794
L 81.407035 157.787794
L 81.407035 173.231177
L 128.237789 173.231177
L 128.237789 173.231177
z
" style="fill:#808080;stroke:#808080;stroke-linejoin:miter;stroke-width:2;"/>
   </g>
   <g id="patch_53">
    <path clip-path="url(#pbbc124566f)" d="M 134.592965 191.248457
L 128.237789 183.526766
L 128.237789 183.526766
L 47.758794 183.526766
L 47.758794 198.970149
L 128.237789 198.970149
L 128.237789 198.970149
z
" style="fill:#808080;stroke:#808080;stroke-linejoin:miter;stroke-width:2;"/>
   </g>
   <g id="patch_54">
    <path clip-path="url(#pbbc124566f)" d="M 134.592965 139.770514
L 128.237789 132.048823
L 128.237789 132.048823
L 42.331658 132.048823
L 42.331658 147.492206
L 128.237789 147.492206
L 128.237789 147.492206
z
" style="fill:#808080;stroke:#808080;stroke-linejoin:miter;stroke-width:2;"/>
   </g>
   <g id="patch_55">
    <path clip-path="url(#pbbc124566f)" d="M 60.422111 165.509486
L 54.066935 157.787794
L 54.066935 157.787794
L 46.492462 157.787794
L 46.492462 173.231177
L 54.066935 173.231177
L 54.066935 173.231177
z
" style="fill:#808080;stroke:#808080;stroke-linejoin:miter;stroke-width:2;"/>
   </g>
   <g id="matplotlib.axis_1">
    <g id="xtick_1">
     <g id="line2d_1">
      <defs>
       <path d="M 0 0
L 0 3.5
" id="m683152598b" style="stroke:#000000;stroke-width:0.8;"/>
      </defs>
      <g>
       <use style="stroke:#000000;stroke-width:0.8;" x="612.904523" xlink:href="#m683152598b" y="250.56"/>
      </g>
     </g>
     <g id="text_1">
      <!-- 26456500 -->
      <defs>
       <path d="M 28.8125 13.8125
L 60.890625 13.8125
L 60.890625 0
L 7.90625 0
L 7.90625 13.8125
L 34.515625 37.3125
Q 38.09375 40.53125 39.796875 43.609375
Q 41.5 46.6875 41.5 50
Q 41.5 55.125 38.0625 58.25
Q 34.625 61.375 28.90625 61.375
Q 24.515625 61.375 19.28125 59.5
Q 14.0625 57.625 8.109375 53.90625
L 8.109375 69.921875
Q 14.453125 72.015625 20.65625 73.109375
Q 26.859375 74.21875 32.8125 74.21875
Q 45.90625 74.21875 53.15625 68.453125
Q 60.40625 62.703125 60.40625 52.390625
Q 60.40625 46.4375 57.328125 41.28125
Q 54.25 36.140625 44.390625 27.484375
z
" id="DejaVuSans-Bold-32"/>
       <path d="M 36.1875 35.984375
Q 31.25 35.984375 28.78125 32.78125
Q 26.3125 29.59375 26.3125 23.1875
Q 26.3125 16.796875 28.78125 13.59375
Q 31.25 10.40625 36.1875 10.40625
Q 41.15625 10.40625 43.625 13.59375
Q 46.09375 16.796875 46.09375 23.1875
Q 46.09375 29.59375 43.625 32.78125
Q 41.15625 35.984375 36.1875 35.984375
z
M 59.421875 71
L 59.421875 57.515625
Q 54.78125 59.71875 50.671875 60.765625
Q 46.578125 61.8125 42.671875 61.8125
Q 34.28125 61.8125 29.59375 57.140625
Q 24.90625 52.484375 24.125 43.3125
Q 27.34375 45.703125 31.09375 46.890625
Q 34.859375 48.09375 39.3125 48.09375
Q 50.484375 48.09375 57.34375 41.546875
Q 64.203125 35.015625 64.203125 24.421875
Q 64.203125 12.703125 56.53125 5.640625
Q 48.875 -1.421875 35.984375 -1.421875
Q 21.78125 -1.421875 13.984375 8.171875
Q 6.203125 17.78125 6.203125 35.40625
Q 6.203125 53.46875 15.3125 63.796875
Q 24.421875 74.125 40.28125 74.125
Q 45.3125 74.125 50.046875 73.34375
Q 54.78125 72.5625 59.421875 71
z
" id="DejaVuSans-Bold-36"/>
       <path d="M 36.8125 57.421875
L 16.21875 26.90625
L 36.8125 26.90625
z
M 33.6875 72.90625
L 54.59375 72.90625
L 54.59375 26.90625
L 64.984375 26.90625
L 64.984375 13.28125
L 54.59375 13.28125
L 54.59375 0
L 36.8125 0
L 36.8125 13.28125
L 4.5 13.28125
L 4.5 29.390625
z
" id="DejaVuSans-Bold-34"/>
       <path d="M 10.59375 72.90625
L 57.328125 72.90625
L 57.328125 59.078125
L 25.59375 59.078125
L 25.59375 47.796875
Q 27.734375 48.390625 29.90625 48.703125
Q 32.078125 49.03125 34.421875 49.03125
Q 47.75 49.03125 55.171875 42.359375
Q 62.59375 35.6875 62.59375 23.78125
Q 62.59375 11.96875 54.515625 5.265625
Q 46.4375 -1.421875 32.078125 -1.421875
Q 25.875 -1.421875 19.796875 -0.21875
Q 13.71875 0.984375 7.71875 3.421875
L 7.71875 18.21875
Q 13.671875 14.796875 19.015625 13.078125
Q 24.359375 11.375 29.109375 11.375
Q 35.9375 11.375 39.859375 14.71875
Q 43.796875 18.0625 43.796875 23.78125
Q 43.796875 29.546875 39.859375 32.859375
Q 35.9375 36.1875 29.109375 36.1875
Q 25.046875 36.1875 20.453125 35.125
Q 15.875 34.078125 10.59375 31.890625
z
" id="DejaVuSans-Bold-35"/>
       <path d="M 46 36.53125
Q 46 50.203125 43.4375 55.78125
Q 40.875 61.375 34.8125 61.375
Q 28.765625 61.375 26.171875 55.78125
Q 23.578125 50.203125 23.578125 36.53125
Q 23.578125 22.703125 26.171875 17.03125
Q 28.765625 11.375 34.8125 11.375
Q 40.828125 11.375 43.40625 17.03125
Q 46 22.703125 46 36.53125
z
M 64.796875 36.375
Q 64.796875 18.265625 56.984375 8.421875
Q 49.171875 -1.421875 34.8125 -1.421875
Q 20.40625 -1.421875 12.59375 8.421875
Q 4.78125 18.265625 4.78125 36.375
Q 4.78125 54.546875 12.59375 64.375
Q 20.40625 74.21875 34.8125 74.21875
Q 49.171875 74.21875 56.984375 64.375
Q 64.796875 54.546875 64.796875 36.375
z
" id="DejaVuSans-Bold-30"/>
      </defs>
      <g transform="translate(579.507023 266.678125)scale(0.12 -0.12)">
       <use xlink:href="#DejaVuSans-Bold-32"/>
       <use x="69.580078" xlink:href="#DejaVuSans-Bold-36"/>
       <use x="139.160156" xlink:href="#DejaVuSans-Bold-34"/>
       <use x="208.740234" xlink:href="#DejaVuSans-Bold-35"/>
       <use x="278.320312" xlink:href="#DejaVuSans-Bold-36"/>
       <use x="347.900391" xlink:href="#DejaVuSans-Bold-35"/>
       <use x="417.480469" xlink:href="#DejaVuSans-Bold-30"/>
       <use x="487.060547" xlink:href="#DejaVuSans-Bold-30"/>
      </g>
     </g>
    </g>
    <g id="xtick_2">
     <g id="line2d_2">
      <g>
       <use style="stroke:#000000;stroke-width:0.8;" x="522.452261" xlink:href="#m683152598b" y="250.56"/>
      </g>
     </g>
     <g id="text_2">
      <!-- 26457000 -->
      <defs>
       <path d="M 6.6875 72.90625
L 61.625 72.90625
L 61.625 62.3125
L 33.203125 0
L 14.890625 0
L 41.796875 59.078125
L 6.6875 59.078125
z
" id="DejaVuSans-Bold-37"/>
      </defs>
      <g transform="translate(489.054761 266.678125)scale(0.12 -0.12)">
       <use xlink:href="#DejaVuSans-Bold-32"/>
       <use x="69.580078" xlink:href="#DejaVuSans-Bold-36"/>
       <use x="139.160156" xlink:href="#DejaVuSans-Bold-34"/>
       <use x="208.740234" xlink:href="#DejaVuSans-Bold-35"/>
       <use x="278.320312" xlink:href="#DejaVuSans-Bold-37"/>
       <use x="347.900391" xlink:href="#DejaVuSans-Bold-30"/>
       <use x="417.480469" xlink:href="#DejaVuSans-Bold-30"/>
       <use x="487.060547" xlink:href="#DejaVuSans-Bold-30"/>
      </g>
     </g>
    </g>
    <g id="xtick_3">
     <g id="line2d_3">
      <g>
       <use style="stroke:#000000;stroke-width:0.8;" x="432" xlink:href="#m683152598b" y="250.56"/>
      </g>
     </g>
     <g id="text_3">
      <!-- 26457500 -->
      <g transform="translate(398.6025 266.678125)scale(0.12 -0.12)">
       <use xlink:href="#DejaVuSans-Bold-32"/>
       <use x="69.580078" xlink:href="#DejaVuSans-Bold-36"/>
       <use x="139.160156" xlink:href="#DejaVuSans-Bold-34"/>
       <use x="208.740234" xlink:href="#DejaVuSans-Bold-35"/>
       <use x="278.320312" xlink:href="#DejaVuSans-Bold-37"/>
       <use x="347.900391" xlink:href="#DejaVuSans-Bold-35"/>
       <use x="417.480469" xlink:href="#DejaVuSans-Bold-30"/>
       <use x="487.060547" xlink:href="#DejaVuSans-Bold-30"/>
      </g>
     </g>
    </g>
    <g id="xtick_4">
     <g id="line2d_4">
      <g>
       <use style="stroke:#000000;stroke-width:0.8;" x="341.547739" xlink:href="#m683152598b" y="250.56"/>
      </g>
     </g>
     <g id="text_4">
      <!-- 26458000 -->
      <defs>
       <path d="M 34.8125 32.625
Q 29.546875 32.625 26.703125 29.734375
Q 23.875 26.859375 23.875 21.484375
Q 23.875 16.109375 26.703125 13.25
Q 29.546875 10.40625 34.8125 10.40625
Q 40.046875 10.40625 42.828125 13.25
Q 45.609375 16.109375 45.609375 21.484375
Q 45.609375 26.90625 42.828125 29.765625
Q 40.046875 32.625 34.8125 32.625
z
M 21.09375 38.8125
Q 14.453125 40.828125 11.078125 44.96875
Q 7.71875 49.125 7.71875 55.328125
Q 7.71875 64.546875 14.59375 69.375
Q 21.484375 74.21875 34.8125 74.21875
Q 48.046875 74.21875 54.921875 69.40625
Q 61.8125 64.59375 61.8125 55.328125
Q 61.8125 49.125 58.421875 44.96875
Q 55.03125 40.828125 48.390625 38.8125
Q 55.8125 36.765625 59.59375 32.15625
Q 63.375 27.546875 63.375 20.515625
Q 63.375 9.671875 56.171875 4.125
Q 48.96875 -1.421875 34.8125 -1.421875
Q 20.609375 -1.421875 13.359375 4.125
Q 6.109375 9.671875 6.109375 20.515625
Q 6.109375 27.546875 9.890625 32.15625
Q 13.671875 36.765625 21.09375 38.8125
z
M 25.484375 53.421875
Q 25.484375 49.078125 27.90625 46.734375
Q 30.328125 44.390625 34.8125 44.390625
Q 39.203125 44.390625 41.59375 46.734375
Q 44 49.078125 44 53.421875
Q 44 57.765625 41.59375 60.078125
Q 39.203125 62.40625 34.8125 62.40625
Q 30.328125 62.40625 27.90625 60.0625
Q 25.484375 57.71875 25.484375 53.421875
z
" id="DejaVuSans-Bold-38"/>
      </defs>
      <g transform="translate(308.150239 266.678125)scale(0.12 -0.12)">
       <use xlink:href="#DejaVuSans-Bold-32"/>
       <use x="69.580078" xlink:href="#DejaVuSans-Bold-36"/>
       <use x="139.160156" xlink:href="#DejaVuSans-Bold-34"/>
       <use x="208.740234" xlink:href="#DejaVuSans-Bold-35"/>
       <use x="278.320312" xlink:href="#DejaVuSans-Bold-38"/>
       <use x="347.900391" xlink:href="#DejaVuSans-Bold-30"/>
       <use x="417.480469" xlink:href="#DejaVuSans-Bold-30"/>
       <use x="487.060547" xlink:href="#DejaVuSans-Bold-30"/>
      </g>
     </g>
    </g>
    <g id="xtick_5">
     <g id="line2d_5">
      <g>
       <use style="stroke:#000000;stroke-width:0.8;" x="251.095477" xlink:href="#m683152598b" y="250.56"/>
      </g>
     </g>
     <g id="text_5">
      <!-- 26458500 -->
      <g transform="translate(217.697977 266.678125)scale(0.12 -0.12)">
       <use xlink:href="#DejaVuSans-Bold-32"/>
       <use x="69.580078" xlink:href="#DejaVuSans-Bold-36"/>
       <use x="139.160156" xlink:href="#DejaVuSans-Bold-34"/>
       <use x="208.740234" xlink:href="#DejaVuSans-Bold-35"/>
       <use x="278.320312" xlink:href="#DejaVuSans-Bold-38"/>
       <use x="347.900391" xlink:href="#DejaVuSans-Bold-35"/>
       <use x="417.480469" xlink:href="#DejaVuSans-Bold-30"/>
       <use x="487.060547" xlink:href="#DejaVuSans-Bold-30"/>
      </g>
     </g>
    </g>
    <g id="xtick_6">
     <g id="line2d_6">
      <g>
       <use style="stroke:#000000;stroke-width:0.8;" x="160.643216" xlink:href="#m683152598b" y="250.56"/>
      </g>
     </g>
     <g id="text_6">
      <!-- 26459000 -->
      <defs>
       <path d="M 10.015625 1.609375
L 10.015625 15.09375
Q 14.5 12.984375 18.59375 11.9375
Q 22.703125 10.890625 26.703125 10.890625
Q 35.109375 10.890625 39.796875 15.546875
Q 44.484375 20.21875 45.3125 29.390625
Q 42 26.953125 38.234375 25.734375
Q 34.46875 24.515625 30.078125 24.515625
Q 18.890625 24.515625 12.03125 31.03125
Q 5.171875 37.546875 5.171875 48.1875
Q 5.171875 59.96875 12.8125 67.046875
Q 20.453125 74.125 33.296875 74.125
Q 47.5625 74.125 55.375 64.5
Q 63.1875 54.890625 63.1875 37.3125
Q 63.1875 19.234375 54.046875 8.90625
Q 44.921875 -1.421875 29 -1.421875
Q 23.875 -1.421875 19.1875 -0.65625
Q 14.5 0.09375 10.015625 1.609375
z
M 33.203125 36.71875
Q 38.140625 36.71875 40.625 39.90625
Q 43.109375 43.109375 43.109375 49.515625
Q 43.109375 55.859375 40.625 59.078125
Q 38.140625 62.3125 33.203125 62.3125
Q 28.265625 62.3125 25.78125 59.078125
Q 23.296875 55.859375 23.296875 49.515625
Q 23.296875 43.109375 25.78125 39.90625
Q 28.265625 36.71875 33.203125 36.71875
z
" id="DejaVuSans-Bold-39"/>
      </defs>
      <g transform="translate(127.245716 266.678125)scale(0.12 -0.12)">
       <use xlink:href="#DejaVuSans-Bold-32"/>
       <use x="69.580078" xlink:href="#DejaVuSans-Bold-36"/>
       <use x="139.160156" xlink:href="#DejaVuSans-Bold-34"/>
       <use x="208.740234" xlink:href="#DejaVuSans-Bold-35"/>
       <use x="278.320312" xlink:href="#DejaVuSans-Bold-39"/>
       <use x="347.900391" xlink:href="#DejaVuSans-Bold-30"/>
       <use x="417.480469" xlink:href="#DejaVuSans-Bold-30"/>
       <use x="487.060547" xlink:href="#DejaVuSans-Bold-30"/>
      </g>
     </g>
    </g>
    <g id="xtick_7">
     <g id="line2d_7">
      <g>
       <use style="stroke:#000000;stroke-width:0.8;" x="70.190955" xlink:href="#m683152598b" y="250.56"/>
      </g>
     </g>
     <g id="text_7">
      <!-- 26459500 -->
      <g transform="translate(36.793455 266.678125)scale(0.12 -0.12)">
       <use xlink:href="#DejaVuSans-Bold-32"/>
       <use x="69.580078" xlink:href="#DejaVuSans-Bold-36"/>
       <use x="139.160156" xlink:href="#DejaVuSans-Bold-34"/>
       <use x="208.740234" xlink:href="#DejaVuSans-Bold-35"/>
       <use x="278.320312" xlink:href="#DejaVuSans-Bold-39"/>
       <use x="347.900391" xlink:href="#DejaVuSans-Bold-35"/>
       <use x="417.480469" xlink:href="#DejaVuSans-Bold-30"/>
       <use x="487.060547" xlink:href="#DejaVuSans-Bold-30"/>
      </g>
     </g>
    </g>
   </g>
   <g id="matplotlib.axis_2">
    <g id="ytick_1">
     <g id="line2d_8">
      <defs>
       <path d="M 0 0
L -3.5 0
" id="mce8e223d23" style="stroke:#000000;stroke-width:0.8;"/>
      </defs>
      <g>
       <use style="stroke:#000000;stroke-width:0.8;" x="36" xlink:href="#mce8e223d23" y="250.56"/>
      </g>
     </g>
    </g>
    <g id="ytick_2">
     <g id="line2d_9">
      <g>
       <use style="stroke:#000000;stroke-width:0.8;" x="36" xlink:href="#mce8e223d23" y="211.392"/>
      </g>
     </g>
    </g>
    <g id="ytick_3">
     <g id="line2d_10">
      <g>
       <use style="stroke:#000000;stroke-width:0.8;" x="36" xlink:href="#mce8e223d23" y="172.224"/>
      </g>
     </g>
    </g>
    <g id="ytick_4">
     <g id="line2d_11">
      <g>
       <use style="stroke:#000000;stroke-width:0.8;" x="36" xlink:href="#mce8e223d23" y="133.056"/>
      </g>
     </g>
    </g>
    <g id="ytick_5">
     <g id="line2d_12">
      <g>
       <use style="stroke:#000000;stroke-width:0.8;" x="36" xlink:href="#mce8e223d23" y="93.888"/>
      </g>
     </g>
    </g>
    <g id="ytick_6">
     <g id="line2d_13">
      <g>
       <use style="stroke:#000000;stroke-width:0.8;" x="36" xlink:href="#mce8e223d23" y="54.72"/>
      </g>
     </g>
    </g>
   </g>
   <g id="patch_56">
    <path d="M 36 250.56
L 36 54.72
" style="fill:none;stroke:#000000;stroke-linecap:square;stroke-linejoin:miter;stroke-width:0.8;"/>
   </g>
   <g id="patch_57">
    <path d="M 684 250.56
L 684 54.72
" style="fill:none;stroke:#000000;stroke-linecap:square;stroke-linejoin:miter;stroke-width:0.8;"/>
   </g>
   <g id="patch_58">
    <path d="M 36 250.56
L 684 250.56
" style="fill:none;stroke:#000000;stroke-linecap:square;stroke-linejoin:miter;stroke-width:0.8;"/>
   </g>
   <g id="patch_59">
    <path d="M 36 54.72
L 684 54.72
" style="fill:none;stroke:#000000;stroke-linecap:square;stroke-linejoin:miter;stroke-width:0.8;"/>
   </g>
   <g id="text_8">
    <!-- AT5G66210 -->
    <defs>
     <path d="M 53.421875 13.28125
L 24.03125 13.28125
L 19.390625 0
L 0.484375 0
L 27.484375 72.90625
L 49.90625 72.90625
L 76.90625 0
L 58.015625 0
z
M 28.71875 26.8125
L 48.6875 26.8125
L 38.71875 55.8125
z
" id="DejaVuSans-Bold-41"/>
     <path d="M 0.484375 72.90625
L 67.671875 72.90625
L 67.671875 58.6875
L 43.5 58.6875
L 43.5 0
L 24.703125 0
L 24.703125 58.6875
L 0.484375 58.6875
z
" id="DejaVuSans-Bold-54"/>
     <path d="M 74.703125 5.421875
Q 67.671875 2 60.109375 0.28125
Q 52.546875 -1.421875 44.484375 -1.421875
Q 26.265625 -1.421875 15.625 8.765625
Q 4.984375 18.953125 4.984375 36.375
Q 4.984375 54 15.8125 64.109375
Q 26.65625 74.21875 45.515625 74.21875
Q 52.78125 74.21875 59.4375 72.84375
Q 66.109375 71.484375 72.015625 68.796875
L 72.015625 53.71875
Q 65.921875 57.171875 59.890625 58.875
Q 53.859375 60.59375 47.796875 60.59375
Q 36.578125 60.59375 30.5 54.3125
Q 24.421875 48.046875 24.421875 36.375
Q 24.421875 24.8125 30.28125 18.5
Q 36.140625 12.203125 46.921875 12.203125
Q 49.859375 12.203125 52.375 12.5625
Q 54.890625 12.9375 56.890625 13.71875
L 56.890625 27.875
L 45.40625 27.875
L 45.40625 40.484375
L 74.703125 40.484375
z
" id="DejaVuSans-Bold-47"/>
     <path d="M 11.71875 12.984375
L 28.328125 12.984375
L 28.328125 60.109375
L 11.28125 56.59375
L 11.28125 69.390625
L 28.21875 72.90625
L 46.09375 72.90625
L 46.09375 12.984375
L 62.703125 12.984375
L 62.703125 0
L 11.71875 0
z
" id="DejaVuSans-Bold-31"/>
    </defs>
    <g transform="translate(333.140248 245.024407)scale(0.08328 -0.08328)">
     <use xlink:href="#DejaVuSans-Bold-41"/>
     <use x="77.283203" xlink:href="#DejaVuSans-Bold-54"/>
     <use x="145.496094" xlink:href="#DejaVuSans-Bold-35"/>
     <use x="215.076172" xlink:href="#DejaVuSans-Bold-47"/>
     <use x="297.15625" xlink:href="#DejaVuSans-Bold-36"/>
     <use x="366.736328" xlink:href="#DejaVuSans-Bold-36"/>
     <use x="436.316406" xlink:href="#DejaVuSans-Bold-32"/>
     <use x="505.896484" xlink:href="#DejaVuSans-Bold-31"/>
     <use x="575.476562" xlink:href="#DejaVuSans-Bold-30"/>
    </g>
   </g>
   <g id="text_9">
    <!-- AT5G66210 (-) -->
    <defs>
     <path d="M 34.1875 63.1875
L 20.796875 26.90625
L 47.609375 26.90625
z
M 28.609375 72.90625
L 39.796875 72.90625
L 67.578125 0
L 57.328125 0
L 50.6875 18.703125
L 17.828125 18.703125
L 11.1875 0
L 0.78125 0
z
" id="DejaVuSans-41"/>
     <path d="M -0.296875 72.90625
L 61.375 72.90625
L 61.375 64.59375
L 35.5 64.59375
L 35.5 0
L 25.59375 0
L 25.59375 64.59375
L -0.296875 64.59375
z
" id="DejaVuSans-54"/>
     <path d="M 10.796875 72.90625
L 49.515625 72.90625
L 49.515625 64.59375
L 19.828125 64.59375
L 19.828125 46.734375
Q 21.96875 47.46875 24.109375 47.828125
Q 26.265625 48.1875 28.421875 48.1875
Q 40.625 48.1875 47.75 41.5
Q 54.890625 34.8125 54.890625 23.390625
Q 54.890625 11.625 47.5625 5.09375
Q 40.234375 -1.421875 26.90625 -1.421875
Q 22.3125 -1.421875 17.546875 -0.640625
Q 12.796875 0.140625 7.71875 1.703125
L 7.71875 11.625
Q 12.109375 9.234375 16.796875 8.0625
Q 21.484375 6.890625 26.703125 6.890625
Q 35.15625 6.890625 40.078125 11.328125
Q 45.015625 15.765625 45.015625 23.390625
Q 45.015625 31 40.078125 35.4375
Q 35.15625 39.890625 26.703125 39.890625
Q 22.75 39.890625 18.8125 39.015625
Q 14.890625 38.140625 10.796875 36.28125
z
" id="DejaVuSans-35"/>
     <path d="M 59.515625 10.40625
L 59.515625 29.984375
L 43.40625 29.984375
L 43.40625 38.09375
L 69.28125 38.09375
L 69.28125 6.78125
Q 63.578125 2.734375 56.6875 0.65625
Q 49.8125 -1.421875 42 -1.421875
Q 24.90625 -1.421875 15.25 8.5625
Q 5.609375 18.5625 5.609375 36.375
Q 5.609375 54.25 15.25 64.234375
Q 24.90625 74.21875 42 74.21875
Q 49.125 74.21875 55.546875 72.453125
Q 61.96875 70.703125 67.390625 67.28125
L 67.390625 56.78125
Q 61.921875 61.421875 55.765625 63.765625
Q 49.609375 66.109375 42.828125 66.109375
Q 29.4375 66.109375 22.71875 58.640625
Q 16.015625 51.171875 16.015625 36.375
Q 16.015625 21.625 22.71875 14.15625
Q 29.4375 6.6875 42.828125 6.6875
Q 48.046875 6.6875 52.140625 7.59375
Q 56.25 8.5 59.515625 10.40625
z
" id="DejaVuSans-47"/>
     <path d="M 33.015625 40.375
Q 26.375 40.375 22.484375 35.828125
Q 18.609375 31.296875 18.609375 23.390625
Q 18.609375 15.53125 22.484375 10.953125
Q 26.375 6.390625 33.015625 6.390625
Q 39.65625 6.390625 43.53125 10.953125
Q 47.40625 15.53125 47.40625 23.390625
Q 47.40625 31.296875 43.53125 35.828125
Q 39.65625 40.375 33.015625 40.375
z
M 52.59375 71.296875
L 52.59375 62.3125
Q 48.875 64.0625 45.09375 64.984375
Q 41.3125 65.921875 37.59375 65.921875
Q 27.828125 65.921875 22.671875 59.328125
Q 17.53125 52.734375 16.796875 39.40625
Q 19.671875 43.65625 24.015625 45.921875
Q 28.375 48.1875 33.59375 48.1875
Q 44.578125 48.1875 50.953125 41.515625
Q 57.328125 34.859375 57.328125 23.390625
Q 57.328125 12.15625 50.6875 5.359375
Q 44.046875 -1.421875 33.015625 -1.421875
Q 20.359375 -1.421875 13.671875 8.265625
Q 6.984375 17.96875 6.984375 36.375
Q 6.984375 53.65625 15.1875 63.9375
Q 23.390625 74.21875 37.203125 74.21875
Q 40.921875 74.21875 44.703125 73.484375
Q 48.484375 72.75 52.59375 71.296875
z
" id="DejaVuSans-36"/>
     <path d="M 19.1875 8.296875
L 53.609375 8.296875
L 53.609375 0
L 7.328125 0
L 7.328125 8.296875
Q 12.9375 14.109375 22.625 23.890625
Q 32.328125 33.6875 34.8125 36.53125
Q 39.546875 41.84375 41.421875 45.53125
Q 43.3125 49.21875 43.3125 52.78125
Q 43.3125 58.59375 39.234375 62.25
Q 35.15625 65.921875 28.609375 65.921875
Q 23.96875 65.921875 18.8125 64.3125
Q 13.671875 62.703125 7.8125 59.421875
L 7.8125 69.390625
Q 13.765625 71.78125 18.9375 73
Q 24.125 74.21875 28.421875 74.21875
Q 39.75 74.21875 46.484375 68.546875
Q 53.21875 62.890625 53.21875 53.421875
Q 53.21875 48.921875 51.53125 44.890625
Q 49.859375 40.875 45.40625 35.40625
Q 44.1875 33.984375 37.640625 27.21875
Q 31.109375 20.453125 19.1875 8.296875
z
" id="DejaVuSans-32"/>
     <path d="M 12.40625 8.296875
L 28.515625 8.296875
L 28.515625 63.921875
L 10.984375 60.40625
L 10.984375 69.390625
L 28.421875 72.90625
L 38.28125 72.90625
L 38.28125 8.296875
L 54.390625 8.296875
L 54.390625 0
L 12.40625 0
z
" id="DejaVuSans-31"/>
     <path d="M 31.78125 66.40625
Q 24.171875 66.40625 20.328125 58.90625
Q 16.5 51.421875 16.5 36.375
Q 16.5 21.390625 20.328125 13.890625
Q 24.171875 6.390625 31.78125 6.390625
Q 39.453125 6.390625 43.28125 13.890625
Q 47.125 21.390625 47.125 36.375
Q 47.125 51.421875 43.28125 58.90625
Q 39.453125 66.40625 31.78125 66.40625
z
M 31.78125 74.21875
Q 44.046875 74.21875 50.515625 64.515625
Q 56.984375 54.828125 56.984375 36.375
Q 56.984375 17.96875 50.515625 8.265625
Q 44.046875 -1.421875 31.78125 -1.421875
Q 19.53125 -1.421875 13.0625 8.265625
Q 6.59375 17.96875 6.59375 36.375
Q 6.59375 54.828125 13.0625 64.515625
Q 19.53125 74.21875 31.78125 74.21875
z
" id="DejaVuSans-30"/>
     <path id="DejaVuSans-20"/>
     <path d="M 31 75.875
Q 24.46875 64.65625 21.28125 53.65625
Q 18.109375 42.671875 18.109375 31.390625
Q 18.109375 20.125 21.3125 9.0625
Q 24.515625 -2 31 -13.1875
L 23.1875 -13.1875
Q 15.875 -1.703125 12.234375 9.375
Q 8.59375 20.453125 8.59375 31.390625
Q 8.59375 42.28125 12.203125 53.3125
Q 15.828125 64.359375 23.1875 75.875
z
" id="DejaVuSans-28"/>
     <path d="M 4.890625 31.390625
L 31.203125 31.390625
L 31.203125 23.390625
L 4.890625 23.390625
z
" id="DejaVuSans-2d"/>
     <path d="M 8.015625 75.875
L 15.828125 75.875
Q 23.140625 64.359375 26.78125 53.3125
Q 30.421875 42.28125 30.421875 31.390625
Q 30.421875 20.453125 26.78125 9.375
Q 23.140625 -1.703125 15.828125 -13.1875
L 8.015625 -13.1875
Q 14.5 -2 17.703125 9.0625
Q 20.90625 20.125 20.90625 31.390625
Q 20.90625 42.671875 17.703125 53.65625
Q 14.5 64.65625 8.015625 75.875
z
" id="DejaVuSans-29"/>
    </defs>
    <g transform="translate(307.116 48.72)scale(0.144 -0.144)">
     <use xlink:href="#DejaVuSans-41"/>
     <use x="68.298828" xlink:href="#DejaVuSans-54"/>
     <use x="129.382812" xlink:href="#DejaVuSans-35"/>
     <use x="193.005859" xlink:href="#DejaVuSans-47"/>
     <use x="270.496094" xlink:href="#DejaVuSans-36"/>
     <use x="334.119141" xlink:href="#DejaVuSans-36"/>
     <use x="397.742188" xlink:href="#DejaVuSans-32"/>
     <use x="461.365234" xlink:href="#DejaVuSans-31"/>
     <use x="524.988281" xlink:href="#DejaVuSans-30"/>
     <use x="588.611328" xlink:href="#DejaVuSans-20"/>
     <use x="620.398438" xlink:href="#DejaVuSans-28"/>
     <use x="659.412109" xlink:href="#DejaVuSans-2d"/>
     <use x="695.496094" xlink:href="#DejaVuSans-29"/>
    </g>
   </g>
  </g>
 </g>
 <defs>
  <clipPath id="pbbc124566f">
   <rect height="195.84" width="648" x="36" y="54.72"/>
  </clipPath>
 </defs>
</svg>
