<?xml version="1.0" encoding="utf-8" standalone="no"?>
<!DOCTYPE svg PUBLIC "-//W3C//DTD SVG 1.1//EN"
  "http://www.w3.org/Graphics/SVG/1.1/DTD/svg11.dtd">
<svg xmlns:xlink="http://www.w3.org/1999/xlink" width="856.081875pt" height="424.098125pt" viewBox="0 0 856.081875 424.098125" xmlns="http://www.w3.org/2000/svg" version="1.1">
 <metadata>
  <rdf:RDF xmlns:dc="http://purl.org/dc/elements/1.1/" xmlns:cc="http://creativecommons.org/ns#" xmlns:rdf="http://www.w3.org/1999/02/22-rdf-syntax-ns#">
   <cc:Work>
    <dc:type rdf:resource="http://purl.org/dc/dcmitype/StillImage"/>
    <dc:date>2022-01-01T05:00:00+00:00</dc:date>
    <dc:format>image/svg+xml</dc:format>
    <dc:creator>
     <cc:Agent>
      <dc:title>Matplotlib v3.10.5, https://matplotlib.org/</dc:title>
     </cc:Agent>
    </dc:creator>
   </cc:Work>
  </rdf:RDF>
 </metadata>
 <defs>
  <style type="text/css">*{stroke-linejoin: round; stroke-linecap: butt}</style>
 </defs>
 <g id="figure_1">
  <g id="patch_1">
   <path d="M 0 424.098125 
L 856.081875 424.098125 
L 856.081875 0 
L 0 0 
z
" style="fill: #ffffff"/>
  </g>
  <g id="axes_1">
   <g id="patch_2">
    <path d="M 41.421875 400.57625 
L 848.881875 400.57625 
L 848.881875 21.89625 
L 41.421875 21.89625 
z
" style="fill: #ffffff"/>
   </g>
   <g id="patch_3">
    <path d="M 78.124602 400.57625 
L 130.55707 400.57625 
L 130.55707 196.626682 
L 78.124602 196.626682 
z
" clip-path="url(#p097c941701)" style="fill: #1f77b4"/>
   </g>
   <g id="patch_4">
    <path d="M 340.28694 400.57625 
L 392.719407 400.57625 
L 392.719407 229.352114 
L 340.28694 229.352114 
z
" clip-path="url(#p097c941701)" style="fill: #1f77b4"/>
   </g>
   <g id="patch_5">
    <path d="M 602.449278 400.57625 
L 654.881745 400.57625 
L 654.881745 228.767731 
L 602.449278 228.767731 
z
" clip-path="url(#p097c941701)" style="fill: #1f77b4"/>
   </g>
   <g id="patch_6">
    <path d="M 130.55707 400.57625 
L 182.989537 400.57625 
L 182.989537 182.548371 
L 130.55707 182.548371 
z
" clip-path="url(#p097c941701)" style="fill: #ff7f0e"/>
   </g>
   <g id="patch_7">
    <path d="M 392.719407 400.57625 
L 445.151875 400.57625 
L 445.151875 228.448977 
L 392.719407 228.448977 
z
" clip-path="url(#p097c941701)" style="fill: #ff7f0e"/>
   </g>
   <g id="patch_8">
    <path d="M 654.881745 400.57625 
L 707.314213 400.57625 
L 707.314213 262.874432 
L 654.881745 262.874432 
z
" clip-path="url(#p097c941701)" style="fill: #ff7f0e"/>
   </g>
   <g id="patch_9">
    <path d="M 182.989537 400.57625 
L 235.422005 400.57625 
L 235.422005 176.459515 
L 182.989537 176.459515 
z
" clip-path="url(#p097c941701)" style="fill: #2ca02c"/>
   </g>
   <g id="patch_10">
    <path d="M 445.151875 400.57625 
L 497.584343 400.57625 
L 497.584343 167.040816 
L 445.151875 167.040816 
z
" clip-path="url(#p097c941701)" style="fill: #2ca02c"/>
   </g>
   <g id="patch_11">
    <path d="M 707.314213 400.57625 
L 759.74668 400.57625 
L 759.74668 156.656097 
L 707.314213 156.656097 
z
" clip-path="url(#p097c941701)" style="fill: #2ca02c"/>
   </g>
   <g id="patch_12">
    <path d="M 235.422005 400.57625 
L 287.854472 400.57625 
L 287.854472 264.99946 
L 235.422005 264.99946 
z
" clip-path="url(#p097c941701)" style="fill: #d62728"/>
   </g>
   <g id="patch_13">
    <path d="M 497.584343 400.57625 
L 550.01681 400.57625 
L 550.01681 252.727423 
L 497.584343 252.727423 
z
" clip-path="url(#p097c941701)" style="fill: #d62728"/>
   </g>
   <g id="patch_14">
    <path d="M 759.74668 400.57625 
L 812.179148 400.57625 
L 812.179148 200.717361 
L 759.74668 200.717361 
z
" clip-path="url(#p097c941701)" style="fill: #d62728"/>
   </g>
   <g id="matplotlib.axis_1">
    <g id="xtick_1">
     <g id="line2d_1">
      <defs>
       <path id="ma9e9cfb948" d="M 0 0 
L 0 3.5 
" style="stroke: #000000; stroke-width: 0.8"/>
      </defs>
      <g>
       <use xlink:href="#ma9e9cfb948" x="182.989537" y="400.57625" style="stroke: #000000; stroke-width: 0.8"/>
      </g>
     </g>
     <g id="text_1">
      <text style="font-size: 10px; font-family: 'Liberation Sans', 'Arimo', 'DejaVu Sans'; text-anchor: middle" x="182.989537" y="414.823125" transform="rotate(-0 182.989537 414.823125)">RF</text>
     </g>
    </g>
    <g id="xtick_2">
     <g id="line2d_2">
      <g>
       <use xlink:href="#ma9e9cfb948" x="445.151875" y="400.57625" style="stroke: #000000; stroke-width: 0.8"/>
      </g>
     </g>
     <g id="text_2">
      <text style="font-size: 10px; font-family: 'Liberation Sans', 'Arimo', 'DejaVu Sans'; text-anchor: middle" x="445.151875" y="414.823125" transform="rotate(-0 445.151875 414.823125)">GBM</text>
     </g>
    </g>
    <g id="xtick_3">
     <g id="line2d_3">
      <g>
       <use xlink:href="#ma9e9cfb948" x="707.314213" y="400.57625" style="stroke: #000000; stroke-width: 0.8"/>
      </g>
     </g>
     <g id="text_3">
      <text style="font-size: 10px; font-family: 'Liberation Sans', 'Arimo', 'DejaVu Sans'; text-anchor: middle" x="707.314213" y="414.823125" transform="rotate(-0 707.314213 414.823125)">XGBoost</text>
     </g>
    </g>
   </g>
   <g id="matplotlib.axis_2">
    <g id="ytick_1">
     <g id="line2d_4">
      <defs>
       <path id="ma71f5c4622" d="M 0 0 
L -3.5 0 
" style="stroke: #000000; stroke-width: 0.8"/>
      </defs>
      <g>
       <use xlink:href="#ma71f5c4622" x="41.421875" y="400.57625" style="stroke: #000000; stroke-width: 0.8"/>
      </g>
     </g>
     <g id="text_4">
      <text style="font-size: 10px; font-family: 'Liberation Sans', 'Arimo', 'DejaVu Sans'; text-anchor: end" x="34.421875" y="404.199687" transform="rotate(-0 34.421875 404.199687)">0.0</text>
     </g>
    </g>
    <g id="ytick_2">
     <g id="line2d_5">
      <g>
       <use xlink:href="#ma71f5c4622" x="41.421875" y="324.84025" style="stroke: #000000; stroke-width: 0.8"/>
      </g>
     </g>
     <g id="text_5">
      <text style="font-size: 10px; font-family: 'Liberation Sans', 'Arimo', 'DejaVu Sans'; text-anchor: end" x="34.421875" y="328.463687" transform="rotate(-0 34.421875 328.463687)">0.2</text>
     </g>
    </g>
    <g id="ytick_3">
     <g id="line2d_6">
      <g>
       <use xlink:href="#ma71f5c4622" x="41.421875" y="249.10425" style="stroke: #000000; stroke-width: 0.8"/>
      </g>
     </g>
     <g id="text_6">
      <text style="font-size: 10px; font-family: 'Liberation Sans', 'Arimo', 'DejaVu Sans'; text-anchor: end" x="34.421875" y="252.727688" transform="rotate(-0 34.421875 252.727688)">0.4</text>
     </g>
    </g>
    <g id="ytick_4">
     <g id="line2d_7">
      <g>
       <use xlink:href="#ma71f5c4622" x="41.421875" y="173.36825" style="stroke: #000000; stroke-width: 0.8"/>
      </g>
     </g>
     <g id="text_7">
      <text style="font-size: 10px; font-family: 'Liberation Sans', 'Arimo', 'DejaVu Sans'; text-anchor: end" x="34.421875" y="176.991687" transform="rotate(-0 34.421875 176.991687)">0.6</text>
     </g>
    </g>
    <g id="ytick_5">
     <g id="line2d_8">
      <g>
       <use xlink:href="#ma71f5c4622" x="41.421875" y="97.63225" style="stroke: #000000; stroke-width: 0.8"/>
      </g>
     </g>
     <g id="text_8">
      <text style="font-size: 10px; font-family: 'Liberation Sans', 'Arimo', 'DejaVu Sans'; text-anchor: end" x="34.421875" y="101.255688" transform="rotate(-0 34.421875 101.255688)">0.8</text>
     </g>
    </g>
    <g id="ytick_6">
     <g id="line2d_9">
      <g>
       <use xlink:href="#ma71f5c4622" x="41.421875" y="21.89625" style="stroke: #000000; stroke-width: 0.8"/>
      </g>
     </g>
     <g id="text_9">
      <text style="font-size: 10px; font-family: 'Liberation Sans', 'Arimo', 'DejaVu Sans'; text-anchor: end" x="34.421875" y="25.519688" transform="rotate(-0 34.421875 25.519688)">1.0</text>
     </g>
    </g>
    <g id="text_10">
     <text style="font-size: 10px; font-family: 'Liberation Sans', 'Arimo', 'DejaVu Sans'; text-anchor: middle" x="14.446875" y="211.23625" transform="rotate(-90 14.446875 211.23625)">AUC</text>
    </g>
   </g>
   <g id="line2d_10">
    <path d="M 41.421875 211.23625 
L 848.881875 211.23625 
" clip-path="url(#p097c941701)" style="fill: none; stroke-dasharray: 5.55,2.4; stroke-dashoffset: 0; stroke: #ff0000; stroke-opacity: 0.5; stroke-width: 1.5"/>
   </g>
   <g id="patch_15">
    <path d="M 41.421875 400.57625 
L 41.421875 21.89625 
" style="fill: none; stroke: #000000; stroke-width: 0.8; stroke-linejoin: miter; stroke-linecap: square"/>
   </g>
   <g id="patch_16">
    <path d="M 848.881875 400.57625 
L 848.881875 21.89625 
" style="fill: none; stroke: #000000; stroke-width: 0.8; stroke-linejoin: miter; stroke-linecap: square"/>
   </g>
   <g id="patch_17">
    <path d="M 41.421875 400.57625 
L 848.881875 400.57625 
" style="fill: none; stroke: #000000; stroke-width: 0.8; stroke-linejoin: miter; stroke-linecap: square"/>
   </g>
   <g id="patch_18">
    <path d="M 41.421875 21.89625 
L 848.881875 21.89625 
" style="fill: none; stroke: #000000; stroke-width: 0.8; stroke-linejoin: miter; stroke-linecap: square"/>
   </g>
   <g id="text_11">
    <text style="font-size: 12px; font-family: 'Liberation Sans', 'Arimo', 'DejaVu Sans'; text-anchor: middle" x="445.151875" y="15.89625" transform="rotate(-0 445.151875 15.89625)">LOSOCV Classification (3-Study: Train on 2, Test on 1)</text>
   </g>
   <g id="legend_1">
    <g id="patch_19">
     <path d="M 721.794375 101.505625 
L 841.881875 101.505625 
Q 843.881875 101.505625 843.881875 99.505625 
L 843.881875 28.89625 
Q 843.881875 26.89625 841.881875 26.89625 
L 721.794375 26.89625 
Q 719.794375 26.89625 719.794375 28.89625 
L 719.794375 99.505625 
Q 719.794375 101.505625 721.794375 101.505625 
z
" style="fill: #ffffff; opacity: 0.8; stroke: #cccccc; stroke-linejoin: miter"/>
    </g>
    <g id="line2d_11">
     <path d="M 723.794375 34.643125 
L 733.794375 34.643125 
L 743.794375 34.643125 
" style="fill: none; stroke-dasharray: 5.55,2.4; stroke-dashoffset: 0; stroke: #ff0000; stroke-opacity: 0.5; stroke-width: 1.5"/>
    </g>
    <g id="text_12">
     <text style="font-size: 10px; font-family: 'Liberation Sans', 'Arimo', 'DejaVu Sans'; text-anchor: start" x="751.794375" y="38.143125" transform="rotate(-0 751.794375 38.143125)">Random (AUC=0.5)</text>
    </g>
    <g id="patch_20">
     <path d="M 723.794375 52.465 
L 743.794375 52.465 
L 743.794375 45.465 
L 723.794375 45.465 
z
" style="fill: #1f77b4"/>
    </g>
    <g id="text_13">
     <text style="font-size: 10px; font-family: 'Liberation Sans', 'Arimo', 'DejaVu Sans'; text-anchor: start" x="751.794375" y="52.465" transform="rotate(-0 751.794375 52.465)">Test: OSD-120</text>
    </g>
    <g id="patch_21">
     <path d="M 723.794375 66.786875 
L 743.794375 66.786875 
L 743.794375 59.786875 
L 723.794375 59.786875 
z
" style="fill: #ff7f0e"/>
    </g>
    <g id="text_14">
     <text style="font-size: 10px; font-family: 'Liberation Sans', 'Arimo', 'DejaVu Sans'; text-anchor: start" x="751.794375" y="66.786875" transform="rotate(-0 751.794375 66.786875)">Test: OSD-314</text>
    </g>
    <g id="patch_22">
     <path d="M 723.794375 81.10875 
L 743.794375 81.10875 
L 743.794375 74.10875 
L 723.794375 74.10875 
z
" style="fill: #2ca02c"/>
    </g>
    <g id="text_15">
     <text style="font-size: 10px; font-family: 'Liberation Sans', 'Arimo', 'DejaVu Sans'; text-anchor: start" x="751.794375" y="81.10875" transform="rotate(-0 751.794375 81.10875)">Test: OSD-37</text>
    </g>
    <g id="patch_23">
     <path d="M 723.794375 95.430625 
L 743.794375 95.430625 
L 743.794375 88.430625 
L 723.794375 88.430625 
z
" style="fill: #d62728"/>
    </g>
    <g id="text_16">
     <text style="font-size: 10px; font-family: 'Liberation Sans', 'Arimo', 'DejaVu Sans'; text-anchor: start" x="751.794375" y="95.430625" transform="rotate(-0 751.794375 95.430625)">Test: OSD-678</text>
    </g>
   </g>
  </g>
 </g>
 <defs>
  <clipPath id="p097c941701">
   <rect x="41.421875" y="21.89625" width="807.46" height="378.68"/>
  </clipPath>
 </defs>
</svg>
